;<svg
  width="40"
  height="40"
  viewBox="0 0 40 40"
  fill="none"
  xmlns="http://www.w3.org/2000/svg"
>
  <circle cx="20" cy="20" r="18.5" fill="#FBFBFB" stroke="#F0F0F0" />
  <mask
    id="mask0"
    style="mask-type:alpha"
    maskUnits="userSpaceOnUse"
    x="2"
    y="2"
    width="36"
    height="36"
  >
    <circle cx="20" cy="20" r="18" fill="#FFCD6C" />
  </mask>
  <g mask="url(#mask0)">
    <mask
      id="mask1"
      style="mask-type:alpha"
      maskUnits="userSpaceOnUse"
      x="2"
      y="2"
      width="36"
      height="36"
    >
      <circle cx="20" cy="20" r="18" fill="#C4C4C4" />
    </mask>
    <g mask="url(#mask1)">
      <path
        d="M20.0006 4.74883C20.0708 4.74733 20.1414 4.74658 20.2126 4.74658V4.75566C30.0854 5.18285 30.4644 20.5749 29.3963 28.3249C27.2676 29.6166 22.6338 30.1651 20.2126 30.3043V30.3255C20.1444 30.3227 20.0737 30.3194 20.0006 30.3157C19.9274 30.3194 19.8567 30.3227 19.7886 30.3255V30.3043C17.3673 30.1651 12.7335 29.6166 10.6049 28.3249C9.53676 20.5749 9.91571 5.18285 19.7886 4.75566V4.74658C19.8597 4.74658 19.9304 4.74733 20.0006 4.74883Z"
        fill="#1F2765"
      />
      <path
        d="M16.8736 26.915C17.2999 28.194 17.1578 31.0645 13.1788 32.315C9.19988 33.5656 7.82619 34.4466 7.63672 34.7308L19.9999 37.8571L32.363 34.7308C32.1736 34.4466 30.7999 33.5656 26.8209 32.315C22.842 31.0645 22.6999 28.194 23.1262 26.915H16.8736Z"
        fill="url(#paint0_linear)"
      />
      <path
        d="M8.68919 33.8483C7.95946 33.9409 6.5 35.0142 6.5 38.5675H33.5C33.5 35.0142 32.0405 33.9409 31.3108 33.8483C30.9605 33.7312 28.7324 32.9667 27.6622 32.5991C27.6622 35.5242 22.8396 36.4672 20 36.6072C17.1604 36.4672 12.3378 35.5242 12.3378 32.5991C11.2676 32.9667 9.03946 33.7312 8.68919 33.8483Z"
        fill="#CA92C4"
      />
      <path
        d="M19.9993 28.7625C20.0977 28.7677 20.1974 28.7566 20.2984 28.7566C25.4854 28.1987 26.9733 20.3973 27.2467 16.425C27.2467 8.67022 21.4004 7.41049 19.9993 7.60752C18.5982 7.41049 12.752 8.67022 12.752 16.425C13.0253 20.3973 14.5133 28.1987 19.7002 28.7566C19.8012 28.7566 19.9009 28.7677 19.9993 28.7625Z"
        fill="#FFC7B9"
      />
      <path
        fill-rule="evenodd"
        clip-rule="evenodd"
        d="M19.4536 11.3539C21.3408 13.9428 23.9989 17.0655 27.2471 17.8201V27.0569L28.9524 26.0679L27.9576 11.7096C27.9059 11.6481 27.8524 11.5841 27.797 11.5179C26.1572 9.55844 22.9132 5.682 18.7903 7.45659C16.1608 7.83761 14.0375 10.8197 12.6011 12.8371C12.2241 13.3665 11.8944 13.8295 11.6154 14.1616L10.4785 26.1796L13.2134 26.8088L12.7522 17.1099C13.8406 16.6831 17.0131 13.8116 19.4536 11.3539Z"
        fill="#1F2765"
      />
      <mask
        id="mask2"
        style="mask-type:alpha"
        maskUnits="userSpaceOnUse"
        x="6"
        y="32"
        width="28"
        height="7"
      >
        <path
          d="M8.68919 33.8674C7.95946 33.9599 6.5 35.0333 6.5 38.5866H33.5C33.5 35.0333 32.0405 33.9599 31.3108 33.8674C30.9605 33.7502 28.7324 32.9858 27.6622 32.6182C27.6622 35.5432 22.8396 36.4863 20 36.6262C17.1604 36.4863 12.3378 35.5432 12.3378 32.6182C11.2676 32.9858 9.03946 33.7502 8.68919 33.8674Z"
          fill="url(#paint1_linear)"
        />
      </mask>
      <g mask="url(#mask2)">
        <path
          d="M11.5431 44.7151C11.5431 44.5578 11.4215 44.4302 11.2716 44.4302C11.1216 44.4302 11 44.5578 11 44.7151C11 44.8725 11.1216 45 11.2716 45C11.4215 45 11.5431 44.8725 11.5431 44.7151Z"
          fill="#FFE7F5"
        />
        <path
          d="M11.5431 43.4942C11.5431 43.3368 11.4215 43.2093 11.2716 43.2093C11.1216 43.2093 11 43.3368 11 43.4942C11 43.6515 11.1216 43.7791 11.2716 43.7791C11.4215 43.7791 11.5431 43.6515 11.5431 43.4942Z"
          fill="#FFE7F5"
        />
        <path
          d="M11.5431 42.2733C11.5431 42.1159 11.4215 41.9884 11.2716 41.9884C11.1216 41.9884 11 42.1159 11 42.2733C11 42.4306 11.1216 42.5581 11.2716 42.5581C11.4215 42.5581 11.5431 42.4306 11.5431 42.2733Z"
          fill="#FFE7F5"
        />
        <path
          d="M11.5431 41.0523C11.5431 40.895 11.4215 40.7674 11.2716 40.7674C11.1216 40.7674 11 40.895 11 41.0523C11 41.2097 11.1216 41.3372 11.2716 41.3372C11.4215 41.3372 11.5431 41.2097 11.5431 41.0523Z"
          fill="#FFE7F5"
        />
        <path
          d="M11.5431 39.8314C11.5431 39.6741 11.4215 39.5465 11.2716 39.5465C11.1216 39.5465 11 39.6741 11 39.8314C11 39.9887 11.1216 40.1163 11.2716 40.1163C11.4215 40.1163 11.5431 39.9887 11.5431 39.8314Z"
          fill="#FFE7F5"
        />
        <path
          d="M11.5431 38.6105C11.5431 38.4531 11.4215 38.3256 11.2716 38.3256C11.1216 38.3256 11 38.4531 11 38.6105C11 38.7678 11.1216 38.8953 11.2716 38.8953C11.4215 38.8953 11.5431 38.7678 11.5431 38.6105Z"
          fill="#FFE7F5"
        />
        <path
          d="M12.7069 44.7151C12.7069 44.5578 12.5853 44.4302 12.4353 44.4302C12.2854 44.4302 12.1638 44.5578 12.1638 44.7151C12.1638 44.8725 12.2854 45 12.4353 45C12.5853 45 12.7069 44.8725 12.7069 44.7151Z"
          fill="#FFE7F5"
        />
        <path
          d="M12.7069 43.4942C12.7069 43.3368 12.5853 43.2093 12.4353 43.2093C12.2854 43.2093 12.1638 43.3368 12.1638 43.4942C12.1638 43.6515 12.2854 43.7791 12.4353 43.7791C12.5853 43.7791 12.7069 43.6515 12.7069 43.4942Z"
          fill="#FFE7F5"
        />
        <path
          d="M12.7069 42.2733C12.7069 42.1159 12.5853 41.9884 12.4353 41.9884C12.2854 41.9884 12.1638 42.1159 12.1638 42.2733C12.1638 42.4306 12.2854 42.5581 12.4353 42.5581C12.5853 42.5581 12.7069 42.4306 12.7069 42.2733Z"
          fill="#FFE7F5"
        />
        <path
          d="M12.7069 41.0523C12.7069 40.895 12.5853 40.7674 12.4353 40.7674C12.2854 40.7674 12.1638 40.895 12.1638 41.0523C12.1638 41.2097 12.2854 41.3372 12.4353 41.3372C12.5853 41.3372 12.7069 41.2097 12.7069 41.0523Z"
          fill="#FFE7F5"
        />
        <path
          d="M12.7069 39.8314C12.7069 39.6741 12.5853 39.5465 12.4353 39.5465C12.2854 39.5465 12.1638 39.6741 12.1638 39.8314C12.1638 39.9887 12.2854 40.1163 12.4353 40.1163C12.5853 40.1163 12.7069 39.9887 12.7069 39.8314Z"
          fill="#FFE7F5"
        />
        <path
          d="M12.7069 38.6105C12.7069 38.4531 12.5853 38.3256 12.4353 38.3256C12.2854 38.3256 12.1638 38.4531 12.1638 38.6105C12.1638 38.7678 12.2854 38.8953 12.4353 38.8953C12.5853 38.8953 12.7069 38.7678 12.7069 38.6105Z"
          fill="#FFE7F5"
        />
        <path
          d="M13.8707 44.7151C13.8707 44.5578 13.7491 44.4302 13.5991 44.4302C13.4492 44.4302 13.3276 44.5578 13.3276 44.7151C13.3276 44.8725 13.4492 45 13.5991 45C13.7491 45 13.8707 44.8725 13.8707 44.7151Z"
          fill="#FFE7F5"
        />
        <path
          d="M13.8707 43.4942C13.8707 43.3368 13.7491 43.2093 13.5991 43.2093C13.4492 43.2093 13.3276 43.3368 13.3276 43.4942C13.3276 43.6515 13.4492 43.7791 13.5991 43.7791C13.7491 43.7791 13.8707 43.6515 13.8707 43.4942Z"
          fill="#FFE7F5"
        />
        <path
          d="M13.8707 42.2733C13.8707 42.1159 13.7491 41.9884 13.5991 41.9884C13.4492 41.9884 13.3276 42.1159 13.3276 42.2733C13.3276 42.4306 13.4492 42.5581 13.5991 42.5581C13.7491 42.5581 13.8707 42.4306 13.8707 42.2733Z"
          fill="#FFE7F5"
        />
        <path
          d="M13.8707 41.0523C13.8707 40.895 13.7491 40.7674 13.5991 40.7674C13.4492 40.7674 13.3276 40.895 13.3276 41.0523C13.3276 41.2097 13.4492 41.3372 13.5991 41.3372C13.7491 41.3372 13.8707 41.2097 13.8707 41.0523Z"
          fill="#FFE7F5"
        />
        <path
          d="M13.8707 39.8314C13.8707 39.6741 13.7491 39.5465 13.5991 39.5465C13.4492 39.5465 13.3276 39.6741 13.3276 39.8314C13.3276 39.9887 13.4492 40.1163 13.5991 40.1163C13.7491 40.1163 13.8707 39.9887 13.8707 39.8314Z"
          fill="#FFE7F5"
        />
        <path
          d="M13.8707 38.6105C13.8707 38.4531 13.7491 38.3256 13.5991 38.3256C13.4492 38.3256 13.3276 38.4531 13.3276 38.6105C13.3276 38.7678 13.4492 38.8953 13.5991 38.8953C13.7491 38.8953 13.8707 38.7678 13.8707 38.6105Z"
          fill="#FFE7F5"
        />
        <path
          d="M15.0345 44.7151C15.0345 44.5578 14.9129 44.4302 14.7629 44.4302C14.613 44.4302 14.4914 44.5578 14.4914 44.7151C14.4914 44.8725 14.613 45 14.7629 45C14.9129 45 15.0345 44.8725 15.0345 44.7151Z"
          fill="#FFE7F5"
        />
        <path
          d="M15.0345 43.4942C15.0345 43.3368 14.9129 43.2093 14.7629 43.2093C14.613 43.2093 14.4914 43.3368 14.4914 43.4942C14.4914 43.6515 14.613 43.7791 14.7629 43.7791C14.9129 43.7791 15.0345 43.6515 15.0345 43.4942Z"
          fill="#FFE7F5"
        />
        <path
          d="M15.0345 42.2733C15.0345 42.1159 14.9129 41.9884 14.7629 41.9884C14.613 41.9884 14.4914 42.1159 14.4914 42.2733C14.4914 42.4306 14.613 42.5581 14.7629 42.5581C14.9129 42.5581 15.0345 42.4306 15.0345 42.2733Z"
          fill="#FFE7F5"
        />
        <path
          d="M15.0345 41.0523C15.0345 40.895 14.9129 40.7674 14.7629 40.7674C14.613 40.7674 14.4914 40.895 14.4914 41.0523C14.4914 41.2097 14.613 41.3372 14.7629 41.3372C14.9129 41.3372 15.0345 41.2097 15.0345 41.0523Z"
          fill="#FFE7F5"
        />
        <path
          d="M15.0345 39.8314C15.0345 39.6741 14.9129 39.5465 14.7629 39.5465C14.613 39.5465 14.4914 39.6741 14.4914 39.8314C14.4914 39.9887 14.613 40.1163 14.7629 40.1163C14.9129 40.1163 15.0345 39.9887 15.0345 39.8314Z"
          fill="#FFE7F5"
        />
        <path
          d="M15.0345 38.6105C15.0345 38.4531 14.9129 38.3256 14.7629 38.3256C14.613 38.3256 14.4914 38.4531 14.4914 38.6105C14.4914 38.7678 14.613 38.8953 14.7629 38.8953C14.9129 38.8953 15.0345 38.7678 15.0345 38.6105Z"
          fill="#FFE7F5"
        />
        <path
          d="M16.1983 44.7151C16.1983 44.5578 16.0767 44.4302 15.9267 44.4302C15.7768 44.4302 15.6552 44.5578 15.6552 44.7151C15.6552 44.8725 15.7768 45 15.9267 45C16.0767 45 16.1983 44.8725 16.1983 44.7151Z"
          fill="#FFE7F5"
        />
        <path
          d="M16.1983 43.4942C16.1983 43.3368 16.0767 43.2093 15.9267 43.2093C15.7768 43.2093 15.6552 43.3368 15.6552 43.4942C15.6552 43.6515 15.7768 43.7791 15.9267 43.7791C16.0767 43.7791 16.1983 43.6515 16.1983 43.4942Z"
          fill="#FFE7F5"
        />
        <path
          d="M16.1983 42.2733C16.1983 42.1159 16.0767 41.9884 15.9267 41.9884C15.7768 41.9884 15.6552 42.1159 15.6552 42.2733C15.6552 42.4306 15.7768 42.5581 15.9267 42.5581C16.0767 42.5581 16.1983 42.4306 16.1983 42.2733Z"
          fill="#FFE7F5"
        />
        <path
          d="M16.1983 41.0523C16.1983 40.895 16.0767 40.7674 15.9267 40.7674C15.7768 40.7674 15.6552 40.895 15.6552 41.0523C15.6552 41.2097 15.7768 41.3372 15.9267 41.3372C16.0767 41.3372 16.1983 41.2097 16.1983 41.0523Z"
          fill="#FFE7F5"
        />
        <path
          d="M16.1983 39.8314C16.1983 39.6741 16.0767 39.5465 15.9267 39.5465C15.7768 39.5465 15.6552 39.6741 15.6552 39.8314C15.6552 39.9887 15.7768 40.1163 15.9267 40.1163C16.0767 40.1163 16.1983 39.9887 16.1983 39.8314Z"
          fill="#FFE7F5"
        />
        <path
          d="M16.1983 38.6105C16.1983 38.4531 16.0767 38.3256 15.9267 38.3256C15.7768 38.3256 15.6552 38.4531 15.6552 38.6105C15.6552 38.7678 15.7768 38.8953 15.9267 38.8953C16.0767 38.8953 16.1983 38.7678 16.1983 38.6105Z"
          fill="#FFE7F5"
        />
        <path
          d="M17.3621 44.7151C17.3621 44.5578 17.2405 44.4302 17.0905 44.4302C16.9405 44.4302 16.819 44.5578 16.819 44.7151C16.819 44.8725 16.9405 45 17.0905 45C17.2405 45 17.3621 44.8725 17.3621 44.7151Z"
          fill="#FFE7F5"
        />
        <path
          d="M17.3621 43.4942C17.3621 43.3368 17.2405 43.2093 17.0905 43.2093C16.9405 43.2093 16.819 43.3368 16.819 43.4942C16.819 43.6515 16.9405 43.7791 17.0905 43.7791C17.2405 43.7791 17.3621 43.6515 17.3621 43.4942Z"
          fill="#FFE7F5"
        />
        <path
          d="M17.3621 42.2733C17.3621 42.1159 17.2405 41.9884 17.0905 41.9884C16.9405 41.9884 16.819 42.1159 16.819 42.2733C16.819 42.4306 16.9405 42.5581 17.0905 42.5581C17.2405 42.5581 17.3621 42.4306 17.3621 42.2733Z"
          fill="#FFE7F5"
        />
        <path
          d="M17.3621 41.0523C17.3621 40.895 17.2405 40.7674 17.0905 40.7674C16.9405 40.7674 16.819 40.895 16.819 41.0523C16.819 41.2097 16.9405 41.3372 17.0905 41.3372C17.2405 41.3372 17.3621 41.2097 17.3621 41.0523Z"
          fill="#FFE7F5"
        />
        <path
          d="M17.3621 39.8314C17.3621 39.6741 17.2405 39.5465 17.0905 39.5465C16.9405 39.5465 16.819 39.6741 16.819 39.8314C16.819 39.9887 16.9405 40.1163 17.0905 40.1163C17.2405 40.1163 17.3621 39.9887 17.3621 39.8314Z"
          fill="#FFE7F5"
        />
        <path
          d="M17.3621 38.6105C17.3621 38.4531 17.2405 38.3256 17.0905 38.3256C16.9405 38.3256 16.819 38.4531 16.819 38.6105C16.819 38.7678 16.9405 38.8953 17.0905 38.8953C17.2405 38.8953 17.3621 38.7678 17.3621 38.6105Z"
          fill="#FFE7F5"
        />
        <path
          d="M18.5259 44.7151C18.5259 44.5578 18.4043 44.4302 18.2543 44.4302C18.1043 44.4302 17.9828 44.5578 17.9828 44.7151C17.9828 44.8725 18.1043 45 18.2543 45C18.4043 45 18.5259 44.8725 18.5259 44.7151Z"
          fill="#FFE7F5"
        />
        <path
          d="M18.5259 43.4942C18.5259 43.3368 18.4043 43.2093 18.2543 43.2093C18.1043 43.2093 17.9828 43.3368 17.9828 43.4942C17.9828 43.6515 18.1043 43.7791 18.2543 43.7791C18.4043 43.7791 18.5259 43.6515 18.5259 43.4942Z"
          fill="#FFE7F5"
        />
        <path
          d="M18.5259 42.2733C18.5259 42.1159 18.4043 41.9884 18.2543 41.9884C18.1043 41.9884 17.9828 42.1159 17.9828 42.2733C17.9828 42.4306 18.1043 42.5581 18.2543 42.5581C18.4043 42.5581 18.5259 42.4306 18.5259 42.2733Z"
          fill="#FFE7F5"
        />
        <path
          d="M18.5259 41.0523C18.5259 40.895 18.4043 40.7674 18.2543 40.7674C18.1043 40.7674 17.9828 40.895 17.9828 41.0523C17.9828 41.2097 18.1043 41.3372 18.2543 41.3372C18.4043 41.3372 18.5259 41.2097 18.5259 41.0523Z"
          fill="#FFE7F5"
        />
        <path
          d="M18.5259 39.8314C18.5259 39.6741 18.4043 39.5465 18.2543 39.5465C18.1043 39.5465 17.9828 39.6741 17.9828 39.8314C17.9828 39.9887 18.1043 40.1163 18.2543 40.1163C18.4043 40.1163 18.5259 39.9887 18.5259 39.8314Z"
          fill="#FFE7F5"
        />
        <path
          d="M18.5259 38.6105C18.5259 38.4531 18.4043 38.3256 18.2543 38.3256C18.1043 38.3256 17.9828 38.4531 17.9828 38.6105C17.9828 38.7678 18.1043 38.8953 18.2543 38.8953C18.4043 38.8953 18.5259 38.7678 18.5259 38.6105Z"
          fill="#FFE7F5"
        />
        <path
          d="M19.6897 44.7151C19.6897 44.5578 19.5681 44.4302 19.4181 44.4302C19.2681 44.4302 19.1466 44.5578 19.1466 44.7151C19.1466 44.8725 19.2681 45 19.4181 45C19.5681 45 19.6897 44.8725 19.6897 44.7151Z"
          fill="#FFE7F5"
        />
        <path
          d="M19.6897 43.4942C19.6897 43.3368 19.5681 43.2093 19.4181 43.2093C19.2681 43.2093 19.1466 43.3368 19.1466 43.4942C19.1466 43.6515 19.2681 43.7791 19.4181 43.7791C19.5681 43.7791 19.6897 43.6515 19.6897 43.4942Z"
          fill="#FFE7F5"
        />
        <path
          d="M19.6897 42.2733C19.6897 42.1159 19.5681 41.9884 19.4181 41.9884C19.2681 41.9884 19.1466 42.1159 19.1466 42.2733C19.1466 42.4306 19.2681 42.5581 19.4181 42.5581C19.5681 42.5581 19.6897 42.4306 19.6897 42.2733Z"
          fill="#FFE7F5"
        />
        <path
          d="M19.6897 41.0523C19.6897 40.895 19.5681 40.7674 19.4181 40.7674C19.2681 40.7674 19.1466 40.895 19.1466 41.0523C19.1466 41.2097 19.2681 41.3372 19.4181 41.3372C19.5681 41.3372 19.6897 41.2097 19.6897 41.0523Z"
          fill="#FFE7F5"
        />
        <path
          d="M19.6897 39.8314C19.6897 39.6741 19.5681 39.5465 19.4181 39.5465C19.2681 39.5465 19.1466 39.6741 19.1466 39.8314C19.1466 39.9887 19.2681 40.1163 19.4181 40.1163C19.5681 40.1163 19.6897 39.9887 19.6897 39.8314Z"
          fill="#FFE7F5"
        />
        <path
          d="M19.6897 38.6105C19.6897 38.4531 19.5681 38.3256 19.4181 38.3256C19.2681 38.3256 19.1466 38.4531 19.1466 38.6105C19.1466 38.7678 19.2681 38.8953 19.4181 38.8953C19.5681 38.8953 19.6897 38.7678 19.6897 38.6105Z"
          fill="#FFE7F5"
        />
        <path
          d="M11.5431 37.3895C11.5431 37.2322 11.4215 37.1047 11.2716 37.1047C11.1216 37.1047 11 37.2322 11 37.3895C11 37.5469 11.1216 37.6744 11.2716 37.6744C11.4215 37.6744 11.5431 37.5469 11.5431 37.3895Z"
          fill="#FFE7F5"
        />
        <path
          d="M11.5431 36.1686C11.5431 36.0113 11.4215 35.8837 11.2716 35.8837C11.1216 35.8837 11 36.0113 11 36.1686C11 36.3259 11.1216 36.4535 11.2716 36.4535C11.4215 36.4535 11.5431 36.3259 11.5431 36.1686Z"
          fill="#FFE7F5"
        />
        <path
          d="M11.5431 34.9477C11.5431 34.7903 11.4215 34.6628 11.2716 34.6628C11.1216 34.6628 11 34.7903 11 34.9477C11 35.105 11.1216 35.2326 11.2716 35.2326C11.4215 35.2326 11.5431 35.105 11.5431 34.9477Z"
          fill="#FFE7F5"
        />
        <path
          d="M11.5431 33.7267C11.5431 33.5694 11.4215 33.4419 11.2716 33.4419C11.1216 33.4419 11 33.5694 11 33.7267C11 33.8841 11.1216 34.0116 11.2716 34.0116C11.4215 34.0116 11.5431 33.8841 11.5431 33.7267Z"
          fill="#FFE7F5"
        />
        <path
          d="M11.5431 32.5058C11.5431 32.3485 11.4215 32.2209 11.2716 32.2209C11.1216 32.2209 11 32.3485 11 32.5058C11 32.6632 11.1216 32.7907 11.2716 32.7907C11.4215 32.7907 11.5431 32.6632 11.5431 32.5058Z"
          fill="#FFE7F5"
        />
        <path
          d="M11.5431 31.2849C11.5431 31.1275 11.4215 31 11.2716 31C11.1216 31 11 31.1275 11 31.2849C11 31.4422 11.1216 31.5698 11.2716 31.5698C11.4215 31.5698 11.5431 31.4422 11.5431 31.2849Z"
          fill="#FFE7F5"
        />
        <path
          d="M12.7069 37.3895C12.7069 37.2322 12.5853 37.1047 12.4353 37.1047C12.2854 37.1047 12.1638 37.2322 12.1638 37.3895C12.1638 37.5469 12.2854 37.6744 12.4353 37.6744C12.5853 37.6744 12.7069 37.5469 12.7069 37.3895Z"
          fill="#FFE7F5"
        />
        <path
          d="M12.7069 36.1686C12.7069 36.0113 12.5853 35.8837 12.4353 35.8837C12.2854 35.8837 12.1638 36.0113 12.1638 36.1686C12.1638 36.3259 12.2854 36.4535 12.4353 36.4535C12.5853 36.4535 12.7069 36.3259 12.7069 36.1686Z"
          fill="#FFE7F5"
        />
        <path
          d="M12.7069 34.9477C12.7069 34.7903 12.5853 34.6628 12.4353 34.6628C12.2854 34.6628 12.1638 34.7903 12.1638 34.9477C12.1638 35.105 12.2854 35.2326 12.4353 35.2326C12.5853 35.2326 12.7069 35.105 12.7069 34.9477Z"
          fill="#FFE7F5"
        />
        <path
          d="M12.7069 33.7267C12.7069 33.5694 12.5853 33.4419 12.4353 33.4419C12.2854 33.4419 12.1638 33.5694 12.1638 33.7267C12.1638 33.8841 12.2854 34.0116 12.4353 34.0116C12.5853 34.0116 12.7069 33.8841 12.7069 33.7267Z"
          fill="#FFE7F5"
        />
        <path
          d="M12.7069 32.5058C12.7069 32.3485 12.5853 32.2209 12.4353 32.2209C12.2854 32.2209 12.1638 32.3485 12.1638 32.5058C12.1638 32.6632 12.2854 32.7907 12.4353 32.7907C12.5853 32.7907 12.7069 32.6632 12.7069 32.5058Z"
          fill="#FFE7F5"
        />
        <path
          d="M12.7069 31.2849C12.7069 31.1275 12.5853 31 12.4353 31C12.2854 31 12.1638 31.1275 12.1638 31.2849C12.1638 31.4422 12.2854 31.5698 12.4353 31.5698C12.5853 31.5698 12.7069 31.4422 12.7069 31.2849Z"
          fill="#FFE7F5"
        />
        <path
          d="M13.8707 37.3895C13.8707 37.2322 13.7491 37.1047 13.5991 37.1047C13.4492 37.1047 13.3276 37.2322 13.3276 37.3895C13.3276 37.5469 13.4492 37.6744 13.5991 37.6744C13.7491 37.6744 13.8707 37.5469 13.8707 37.3895Z"
          fill="#FFE7F5"
        />
        <path
          d="M13.8707 36.1686C13.8707 36.0113 13.7491 35.8837 13.5991 35.8837C13.4492 35.8837 13.3276 36.0113 13.3276 36.1686C13.3276 36.3259 13.4492 36.4535 13.5991 36.4535C13.7491 36.4535 13.8707 36.3259 13.8707 36.1686Z"
          fill="#FFE7F5"
        />
        <path
          d="M13.8707 34.9477C13.8707 34.7903 13.7491 34.6628 13.5991 34.6628C13.4492 34.6628 13.3276 34.7903 13.3276 34.9477C13.3276 35.105 13.4492 35.2326 13.5991 35.2326C13.7491 35.2326 13.8707 35.105 13.8707 34.9477Z"
          fill="#FFE7F5"
        />
        <path
          d="M13.8707 33.7267C13.8707 33.5694 13.7491 33.4419 13.5991 33.4419C13.4492 33.4419 13.3276 33.5694 13.3276 33.7267C13.3276 33.8841 13.4492 34.0116 13.5991 34.0116C13.7491 34.0116 13.8707 33.8841 13.8707 33.7267Z"
          fill="#FFE7F5"
        />
        <path
          d="M13.8707 32.5058C13.8707 32.3485 13.7491 32.2209 13.5991 32.2209C13.4492 32.2209 13.3276 32.3485 13.3276 32.5058C13.3276 32.6632 13.4492 32.7907 13.5991 32.7907C13.7491 32.7907 13.8707 32.6632 13.8707 32.5058Z"
          fill="#FFE7F5"
        />
        <path
          d="M13.8707 31.2849C13.8707 31.1275 13.7491 31 13.5991 31C13.4492 31 13.3276 31.1275 13.3276 31.2849C13.3276 31.4422 13.4492 31.5698 13.5991 31.5698C13.7491 31.5698 13.8707 31.4422 13.8707 31.2849Z"
          fill="#FFE7F5"
        />
        <path
          d="M15.0345 37.3895C15.0345 37.2322 14.9129 37.1047 14.7629 37.1047C14.613 37.1047 14.4914 37.2322 14.4914 37.3895C14.4914 37.5469 14.613 37.6744 14.7629 37.6744C14.9129 37.6744 15.0345 37.5469 15.0345 37.3895Z"
          fill="#FFE7F5"
        />
        <path
          d="M15.0345 36.1686C15.0345 36.0113 14.9129 35.8837 14.7629 35.8837C14.613 35.8837 14.4914 36.0113 14.4914 36.1686C14.4914 36.3259 14.613 36.4535 14.7629 36.4535C14.9129 36.4535 15.0345 36.3259 15.0345 36.1686Z"
          fill="#FFE7F5"
        />
        <path
          d="M15.0345 34.9477C15.0345 34.7903 14.9129 34.6628 14.7629 34.6628C14.613 34.6628 14.4914 34.7903 14.4914 34.9477C14.4914 35.105 14.613 35.2326 14.7629 35.2326C14.9129 35.2326 15.0345 35.105 15.0345 34.9477Z"
          fill="#FFE7F5"
        />
        <path
          d="M15.0345 33.7267C15.0345 33.5694 14.9129 33.4419 14.7629 33.4419C14.613 33.4419 14.4914 33.5694 14.4914 33.7267C14.4914 33.8841 14.613 34.0116 14.7629 34.0116C14.9129 34.0116 15.0345 33.8841 15.0345 33.7267Z"
          fill="#FFE7F5"
        />
        <path
          d="M15.0345 32.5058C15.0345 32.3485 14.9129 32.2209 14.7629 32.2209C14.613 32.2209 14.4914 32.3485 14.4914 32.5058C14.4914 32.6632 14.613 32.7907 14.7629 32.7907C14.9129 32.7907 15.0345 32.6632 15.0345 32.5058Z"
          fill="#FFE7F5"
        />
        <path
          d="M15.0345 31.2849C15.0345 31.1275 14.9129 31 14.7629 31C14.613 31 14.4914 31.1275 14.4914 31.2849C14.4914 31.4422 14.613 31.5698 14.7629 31.5698C14.9129 31.5698 15.0345 31.4422 15.0345 31.2849Z"
          fill="#FFE7F5"
        />
        <path
          d="M16.1983 37.3895C16.1983 37.2322 16.0767 37.1047 15.9267 37.1047C15.7768 37.1047 15.6552 37.2322 15.6552 37.3895C15.6552 37.5469 15.7768 37.6744 15.9267 37.6744C16.0767 37.6744 16.1983 37.5469 16.1983 37.3895Z"
          fill="#FFE7F5"
        />
        <path
          d="M16.1983 36.1686C16.1983 36.0113 16.0767 35.8837 15.9267 35.8837C15.7768 35.8837 15.6552 36.0113 15.6552 36.1686C15.6552 36.3259 15.7768 36.4535 15.9267 36.4535C16.0767 36.4535 16.1983 36.3259 16.1983 36.1686Z"
          fill="#FFE7F5"
        />
        <path
          d="M16.1983 34.9477C16.1983 34.7903 16.0767 34.6628 15.9267 34.6628C15.7768 34.6628 15.6552 34.7903 15.6552 34.9477C15.6552 35.105 15.7768 35.2326 15.9267 35.2326C16.0767 35.2326 16.1983 35.105 16.1983 34.9477Z"
          fill="#FFE7F5"
        />
        <path
          d="M16.1983 33.7267C16.1983 33.5694 16.0767 33.4419 15.9267 33.4419C15.7768 33.4419 15.6552 33.5694 15.6552 33.7267C15.6552 33.8841 15.7768 34.0116 15.9267 34.0116C16.0767 34.0116 16.1983 33.8841 16.1983 33.7267Z"
          fill="#FFE7F5"
        />
        <path
          d="M16.1983 32.5058C16.1983 32.3485 16.0767 32.2209 15.9267 32.2209C15.7768 32.2209 15.6552 32.3485 15.6552 32.5058C15.6552 32.6632 15.7768 32.7907 15.9267 32.7907C16.0767 32.7907 16.1983 32.6632 16.1983 32.5058Z"
          fill="#FFE7F5"
        />
        <path
          d="M16.1983 31.2849C16.1983 31.1275 16.0767 31 15.9267 31C15.7768 31 15.6552 31.1275 15.6552 31.2849C15.6552 31.4422 15.7768 31.5698 15.9267 31.5698C16.0767 31.5698 16.1983 31.4422 16.1983 31.2849Z"
          fill="#FFE7F5"
        />
        <path
          d="M17.3621 37.3895C17.3621 37.2322 17.2405 37.1047 17.0905 37.1047C16.9405 37.1047 16.819 37.2322 16.819 37.3895C16.819 37.5469 16.9405 37.6744 17.0905 37.6744C17.2405 37.6744 17.3621 37.5469 17.3621 37.3895Z"
          fill="#FFE7F5"
        />
        <path
          d="M17.3621 36.1686C17.3621 36.0113 17.2405 35.8837 17.0905 35.8837C16.9405 35.8837 16.819 36.0113 16.819 36.1686C16.819 36.3259 16.9405 36.4535 17.0905 36.4535C17.2405 36.4535 17.3621 36.3259 17.3621 36.1686Z"
          fill="#FFE7F5"
        />
        <path
          d="M17.3621 34.9477C17.3621 34.7903 17.2405 34.6628 17.0905 34.6628C16.9405 34.6628 16.819 34.7903 16.819 34.9477C16.819 35.105 16.9405 35.2326 17.0905 35.2326C17.2405 35.2326 17.3621 35.105 17.3621 34.9477Z"
          fill="#FFE7F5"
        />
        <path
          d="M17.3621 33.7267C17.3621 33.5694 17.2405 33.4419 17.0905 33.4419C16.9405 33.4419 16.819 33.5694 16.819 33.7267C16.819 33.8841 16.9405 34.0116 17.0905 34.0116C17.2405 34.0116 17.3621 33.8841 17.3621 33.7267Z"
          fill="#FFE7F5"
        />
        <path
          d="M17.3621 32.5058C17.3621 32.3485 17.2405 32.2209 17.0905 32.2209C16.9405 32.2209 16.819 32.3485 16.819 32.5058C16.819 32.6632 16.9405 32.7907 17.0905 32.7907C17.2405 32.7907 17.3621 32.6632 17.3621 32.5058Z"
          fill="#FFE7F5"
        />
        <path
          d="M17.3621 31.2849C17.3621 31.1275 17.2405 31 17.0905 31C16.9405 31 16.819 31.1275 16.819 31.2849C16.819 31.4422 16.9405 31.5698 17.0905 31.5698C17.2405 31.5698 17.3621 31.4422 17.3621 31.2849Z"
          fill="#FFE7F5"
        />
        <path
          d="M18.5259 37.3895C18.5259 37.2322 18.4043 37.1047 18.2543 37.1047C18.1043 37.1047 17.9828 37.2322 17.9828 37.3895C17.9828 37.5469 18.1043 37.6744 18.2543 37.6744C18.4043 37.6744 18.5259 37.5469 18.5259 37.3895Z"
          fill="#FFE7F5"
        />
        <path
          d="M18.5259 36.1686C18.5259 36.0113 18.4043 35.8837 18.2543 35.8837C18.1043 35.8837 17.9828 36.0113 17.9828 36.1686C17.9828 36.3259 18.1043 36.4535 18.2543 36.4535C18.4043 36.4535 18.5259 36.3259 18.5259 36.1686Z"
          fill="#FFE7F5"
        />
        <path
          d="M18.5259 34.9477C18.5259 34.7903 18.4043 34.6628 18.2543 34.6628C18.1043 34.6628 17.9828 34.7903 17.9828 34.9477C17.9828 35.105 18.1043 35.2326 18.2543 35.2326C18.4043 35.2326 18.5259 35.105 18.5259 34.9477Z"
          fill="#FFE7F5"
        />
        <path
          d="M18.5259 33.7267C18.5259 33.5694 18.4043 33.4419 18.2543 33.4419C18.1043 33.4419 17.9828 33.5694 17.9828 33.7267C17.9828 33.8841 18.1043 34.0116 18.2543 34.0116C18.4043 34.0116 18.5259 33.8841 18.5259 33.7267Z"
          fill="#FFE7F5"
        />
        <path
          d="M18.5259 32.5058C18.5259 32.3485 18.4043 32.2209 18.2543 32.2209C18.1043 32.2209 17.9828 32.3485 17.9828 32.5058C17.9828 32.6632 18.1043 32.7907 18.2543 32.7907C18.4043 32.7907 18.5259 32.6632 18.5259 32.5058Z"
          fill="#FFE7F5"
        />
        <path
          d="M18.5259 31.2849C18.5259 31.1275 18.4043 31 18.2543 31C18.1043 31 17.9828 31.1275 17.9828 31.2849C17.9828 31.4422 18.1043 31.5698 18.2543 31.5698C18.4043 31.5698 18.5259 31.4422 18.5259 31.2849Z"
          fill="#FFE7F5"
        />
        <path
          d="M19.6897 37.3895C19.6897 37.2322 19.5681 37.1047 19.4181 37.1047C19.2681 37.1047 19.1466 37.2322 19.1466 37.3895C19.1466 37.5469 19.2681 37.6744 19.4181 37.6744C19.5681 37.6744 19.6897 37.5469 19.6897 37.3895Z"
          fill="#FFE7F5"
        />
        <path
          d="M19.6897 36.1686C19.6897 36.0113 19.5681 35.8837 19.4181 35.8837C19.2681 35.8837 19.1466 36.0113 19.1466 36.1686C19.1466 36.3259 19.2681 36.4535 19.4181 36.4535C19.5681 36.4535 19.6897 36.3259 19.6897 36.1686Z"
          fill="#FFE7F5"
        />
        <path
          d="M19.6897 34.9477C19.6897 34.7903 19.5681 34.6628 19.4181 34.6628C19.2681 34.6628 19.1466 34.7903 19.1466 34.9477C19.1466 35.105 19.2681 35.2326 19.4181 35.2326C19.5681 35.2326 19.6897 35.105 19.6897 34.9477Z"
          fill="#FFE7F5"
        />
        <path
          d="M19.6897 33.7267C19.6897 33.5694 19.5681 33.4419 19.4181 33.4419C19.2681 33.4419 19.1466 33.5694 19.1466 33.7267C19.1466 33.8841 19.2681 34.0116 19.4181 34.0116C19.5681 34.0116 19.6897 33.8841 19.6897 33.7267Z"
          fill="#FFE7F5"
        />
        <path
          d="M19.6897 32.5058C19.6897 32.3485 19.5681 32.2209 19.4181 32.2209C19.2681 32.2209 19.1466 32.3485 19.1466 32.5058C19.1466 32.6632 19.2681 32.7907 19.4181 32.7907C19.5681 32.7907 19.6897 32.6632 19.6897 32.5058Z"
          fill="#FFE7F5"
        />
        <path
          d="M19.6897 31.2849C19.6897 31.1275 19.5681 31 19.4181 31C19.2681 31 19.1466 31.1275 19.1466 31.2849C19.1466 31.4422 19.2681 31.5698 19.4181 31.5698C19.5681 31.5698 19.6897 31.4422 19.6897 31.2849Z"
          fill="#FFE7F5"
        />
        <path
          d="M20.8534 44.7151C20.8534 44.5578 20.7319 44.4302 20.5819 44.4302C20.4319 44.4302 20.3103 44.5578 20.3103 44.7151C20.3103 44.8725 20.4319 45 20.5819 45C20.7319 45 20.8534 44.8725 20.8534 44.7151Z"
          fill="#FFE7F5"
        />
        <path
          d="M20.8534 43.4942C20.8534 43.3368 20.7319 43.2093 20.5819 43.2093C20.4319 43.2093 20.3103 43.3368 20.3103 43.4942C20.3103 43.6515 20.4319 43.7791 20.5819 43.7791C20.7319 43.7791 20.8534 43.6515 20.8534 43.4942Z"
          fill="#FFE7F5"
        />
        <path
          d="M20.8534 42.2733C20.8534 42.1159 20.7319 41.9884 20.5819 41.9884C20.4319 41.9884 20.3103 42.1159 20.3103 42.2733C20.3103 42.4306 20.4319 42.5581 20.5819 42.5581C20.7319 42.5581 20.8534 42.4306 20.8534 42.2733Z"
          fill="#FFE7F5"
        />
        <path
          d="M20.8534 41.0523C20.8534 40.895 20.7319 40.7674 20.5819 40.7674C20.4319 40.7674 20.3103 40.895 20.3103 41.0523C20.3103 41.2097 20.4319 41.3372 20.5819 41.3372C20.7319 41.3372 20.8534 41.2097 20.8534 41.0523Z"
          fill="#FFE7F5"
        />
        <path
          d="M20.8534 39.8314C20.8534 39.6741 20.7319 39.5465 20.5819 39.5465C20.4319 39.5465 20.3103 39.6741 20.3103 39.8314C20.3103 39.9887 20.4319 40.1163 20.5819 40.1163C20.7319 40.1163 20.8534 39.9887 20.8534 39.8314Z"
          fill="#FFE7F5"
        />
        <path
          d="M20.8534 38.6105C20.8534 38.4531 20.7319 38.3256 20.5819 38.3256C20.4319 38.3256 20.3103 38.4531 20.3103 38.6105C20.3103 38.7678 20.4319 38.8953 20.5819 38.8953C20.7319 38.8953 20.8534 38.7678 20.8534 38.6105Z"
          fill="#FFE7F5"
        />
        <path
          d="M22.0172 44.7151C22.0172 44.5578 21.8957 44.4302 21.7457 44.4302C21.5957 44.4302 21.4741 44.5578 21.4741 44.7151C21.4741 44.8725 21.5957 45 21.7457 45C21.8957 45 22.0172 44.8725 22.0172 44.7151Z"
          fill="#FFE7F5"
        />
        <path
          d="M22.0172 43.4942C22.0172 43.3368 21.8957 43.2093 21.7457 43.2093C21.5957 43.2093 21.4741 43.3368 21.4741 43.4942C21.4741 43.6515 21.5957 43.7791 21.7457 43.7791C21.8957 43.7791 22.0172 43.6515 22.0172 43.4942Z"
          fill="#FFE7F5"
        />
        <path
          d="M22.0172 42.2733C22.0172 42.1159 21.8957 41.9884 21.7457 41.9884C21.5957 41.9884 21.4741 42.1159 21.4741 42.2733C21.4741 42.4306 21.5957 42.5581 21.7457 42.5581C21.8957 42.5581 22.0172 42.4306 22.0172 42.2733Z"
          fill="#FFE7F5"
        />
        <path
          d="M22.0172 41.0523C22.0172 40.895 21.8957 40.7674 21.7457 40.7674C21.5957 40.7674 21.4741 40.895 21.4741 41.0523C21.4741 41.2097 21.5957 41.3372 21.7457 41.3372C21.8957 41.3372 22.0172 41.2097 22.0172 41.0523Z"
          fill="#FFE7F5"
        />
        <path
          d="M22.0172 39.8314C22.0172 39.6741 21.8957 39.5465 21.7457 39.5465C21.5957 39.5465 21.4741 39.6741 21.4741 39.8314C21.4741 39.9887 21.5957 40.1163 21.7457 40.1163C21.8957 40.1163 22.0172 39.9887 22.0172 39.8314Z"
          fill="#FFE7F5"
        />
        <path
          d="M22.0172 38.6105C22.0172 38.4531 21.8957 38.3256 21.7457 38.3256C21.5957 38.3256 21.4741 38.4531 21.4741 38.6105C21.4741 38.7678 21.5957 38.8953 21.7457 38.8953C21.8957 38.8953 22.0172 38.7678 22.0172 38.6105Z"
          fill="#FFE7F5"
        />
        <path
          d="M23.181 44.7151C23.181 44.5578 23.0595 44.4302 22.9095 44.4302C22.7595 44.4302 22.6379 44.5578 22.6379 44.7151C22.6379 44.8725 22.7595 45 22.9095 45C23.0595 45 23.181 44.8725 23.181 44.7151Z"
          fill="#FFE7F5"
        />
        <path
          d="M23.181 43.4942C23.181 43.3368 23.0595 43.2093 22.9095 43.2093C22.7595 43.2093 22.6379 43.3368 22.6379 43.4942C22.6379 43.6515 22.7595 43.7791 22.9095 43.7791C23.0595 43.7791 23.181 43.6515 23.181 43.4942Z"
          fill="#FFE7F5"
        />
        <path
          d="M23.181 42.2733C23.181 42.1159 23.0595 41.9884 22.9095 41.9884C22.7595 41.9884 22.6379 42.1159 22.6379 42.2733C22.6379 42.4306 22.7595 42.5581 22.9095 42.5581C23.0595 42.5581 23.181 42.4306 23.181 42.2733Z"
          fill="#FFE7F5"
        />
        <path
          d="M23.181 41.0523C23.181 40.895 23.0595 40.7674 22.9095 40.7674C22.7595 40.7674 22.6379 40.895 22.6379 41.0523C22.6379 41.2097 22.7595 41.3372 22.9095 41.3372C23.0595 41.3372 23.181 41.2097 23.181 41.0523Z"
          fill="#FFE7F5"
        />
        <path
          d="M23.181 39.8314C23.181 39.6741 23.0595 39.5465 22.9095 39.5465C22.7595 39.5465 22.6379 39.6741 22.6379 39.8314C22.6379 39.9887 22.7595 40.1163 22.9095 40.1163C23.0595 40.1163 23.181 39.9887 23.181 39.8314Z"
          fill="#FFE7F5"
        />
        <path
          d="M23.181 38.6105C23.181 38.4531 23.0595 38.3256 22.9095 38.3256C22.7595 38.3256 22.6379 38.4531 22.6379 38.6105C22.6379 38.7678 22.7595 38.8953 22.9095 38.8953C23.0595 38.8953 23.181 38.7678 23.181 38.6105Z"
          fill="#FFE7F5"
        />
        <path
          d="M24.3448 44.7151C24.3448 44.5578 24.2232 44.4302 24.0733 44.4302C23.9233 44.4302 23.8017 44.5578 23.8017 44.7151C23.8017 44.8725 23.9233 45 24.0733 45C24.2232 45 24.3448 44.8725 24.3448 44.7151Z"
          fill="#FFE7F5"
        />
        <path
          d="M24.3448 43.4942C24.3448 43.3368 24.2232 43.2093 24.0733 43.2093C23.9233 43.2093 23.8017 43.3368 23.8017 43.4942C23.8017 43.6515 23.9233 43.7791 24.0733 43.7791C24.2232 43.7791 24.3448 43.6515 24.3448 43.4942Z"
          fill="#FFE7F5"
        />
        <path
          d="M24.3448 42.2733C24.3448 42.1159 24.2232 41.9884 24.0733 41.9884C23.9233 41.9884 23.8017 42.1159 23.8017 42.2733C23.8017 42.4306 23.9233 42.5581 24.0733 42.5581C24.2232 42.5581 24.3448 42.4306 24.3448 42.2733Z"
          fill="#FFE7F5"
        />
        <path
          d="M24.3448 41.0523C24.3448 40.895 24.2232 40.7674 24.0733 40.7674C23.9233 40.7674 23.8017 40.895 23.8017 41.0523C23.8017 41.2097 23.9233 41.3372 24.0733 41.3372C24.2232 41.3372 24.3448 41.2097 24.3448 41.0523Z"
          fill="#FFE7F5"
        />
        <path
          d="M24.3448 39.8314C24.3448 39.6741 24.2232 39.5465 24.0733 39.5465C23.9233 39.5465 23.8017 39.6741 23.8017 39.8314C23.8017 39.9887 23.9233 40.1163 24.0733 40.1163C24.2232 40.1163 24.3448 39.9887 24.3448 39.8314Z"
          fill="#FFE7F5"
        />
        <path
          d="M24.3448 38.6105C24.3448 38.4531 24.2232 38.3256 24.0733 38.3256C23.9233 38.3256 23.8017 38.4531 23.8017 38.6105C23.8017 38.7678 23.9233 38.8953 24.0733 38.8953C24.2232 38.8953 24.3448 38.7678 24.3448 38.6105Z"
          fill="#FFE7F5"
        />
        <path
          d="M25.5086 44.7151C25.5086 44.5578 25.387 44.4302 25.2371 44.4302C25.0871 44.4302 24.9655 44.5578 24.9655 44.7151C24.9655 44.8725 25.0871 45 25.2371 45C25.387 45 25.5086 44.8725 25.5086 44.7151Z"
          fill="#FFE7F5"
        />
        <path
          d="M25.5086 43.4942C25.5086 43.3368 25.387 43.2093 25.2371 43.2093C25.0871 43.2093 24.9655 43.3368 24.9655 43.4942C24.9655 43.6515 25.0871 43.7791 25.2371 43.7791C25.387 43.7791 25.5086 43.6515 25.5086 43.4942Z"
          fill="#FFE7F5"
        />
        <path
          d="M25.5086 42.2733C25.5086 42.1159 25.387 41.9884 25.2371 41.9884C25.0871 41.9884 24.9655 42.1159 24.9655 42.2733C24.9655 42.4306 25.0871 42.5581 25.2371 42.5581C25.387 42.5581 25.5086 42.4306 25.5086 42.2733Z"
          fill="#FFE7F5"
        />
        <path
          d="M25.5086 41.0523C25.5086 40.895 25.387 40.7674 25.2371 40.7674C25.0871 40.7674 24.9655 40.895 24.9655 41.0523C24.9655 41.2097 25.0871 41.3372 25.2371 41.3372C25.387 41.3372 25.5086 41.2097 25.5086 41.0523Z"
          fill="#FFE7F5"
        />
        <path
          d="M25.5086 39.8314C25.5086 39.6741 25.387 39.5465 25.2371 39.5465C25.0871 39.5465 24.9655 39.6741 24.9655 39.8314C24.9655 39.9887 25.0871 40.1163 25.2371 40.1163C25.387 40.1163 25.5086 39.9887 25.5086 39.8314Z"
          fill="#FFE7F5"
        />
        <path
          d="M25.5086 38.6105C25.5086 38.4531 25.387 38.3256 25.2371 38.3256C25.0871 38.3256 24.9655 38.4531 24.9655 38.6105C24.9655 38.7678 25.0871 38.8953 25.2371 38.8953C25.387 38.8953 25.5086 38.7678 25.5086 38.6105Z"
          fill="#FFE7F5"
        />
        <path
          d="M26.6724 44.7151C26.6724 44.5578 26.5508 44.4302 26.4009 44.4302C26.2509 44.4302 26.1293 44.5578 26.1293 44.7151C26.1293 44.8725 26.2509 45 26.4009 45C26.5508 45 26.6724 44.8725 26.6724 44.7151Z"
          fill="#FFE7F5"
        />
        <path
          d="M26.6724 43.4942C26.6724 43.3368 26.5508 43.2093 26.4009 43.2093C26.2509 43.2093 26.1293 43.3368 26.1293 43.4942C26.1293 43.6515 26.2509 43.7791 26.4009 43.7791C26.5508 43.7791 26.6724 43.6515 26.6724 43.4942Z"
          fill="#FFE7F5"
        />
        <path
          d="M26.6724 42.2733C26.6724 42.1159 26.5508 41.9884 26.4009 41.9884C26.2509 41.9884 26.1293 42.1159 26.1293 42.2733C26.1293 42.4306 26.2509 42.5581 26.4009 42.5581C26.5508 42.5581 26.6724 42.4306 26.6724 42.2733Z"
          fill="#FFE7F5"
        />
        <path
          d="M26.6724 41.0523C26.6724 40.895 26.5508 40.7674 26.4009 40.7674C26.2509 40.7674 26.1293 40.895 26.1293 41.0523C26.1293 41.2097 26.2509 41.3372 26.4009 41.3372C26.5508 41.3372 26.6724 41.2097 26.6724 41.0523Z"
          fill="#FFE7F5"
        />
        <path
          d="M26.6724 39.8314C26.6724 39.6741 26.5508 39.5465 26.4009 39.5465C26.2509 39.5465 26.1293 39.6741 26.1293 39.8314C26.1293 39.9887 26.2509 40.1163 26.4009 40.1163C26.5508 40.1163 26.6724 39.9887 26.6724 39.8314Z"
          fill="#FFE7F5"
        />
        <path
          d="M26.6724 38.6105C26.6724 38.4531 26.5508 38.3256 26.4009 38.3256C26.2509 38.3256 26.1293 38.4531 26.1293 38.6105C26.1293 38.7678 26.2509 38.8953 26.4009 38.8953C26.5508 38.8953 26.6724 38.7678 26.6724 38.6105Z"
          fill="#FFE7F5"
        />
        <path
          d="M27.8362 44.7151C27.8362 44.5578 27.7146 44.4302 27.5647 44.4302C27.4147 44.4302 27.2931 44.5578 27.2931 44.7151C27.2931 44.8725 27.4147 45 27.5647 45C27.7146 45 27.8362 44.8725 27.8362 44.7151Z"
          fill="#FFE7F5"
        />
        <path
          d="M27.8362 43.4942C27.8362 43.3368 27.7146 43.2093 27.5647 43.2093C27.4147 43.2093 27.2931 43.3368 27.2931 43.4942C27.2931 43.6515 27.4147 43.7791 27.5647 43.7791C27.7146 43.7791 27.8362 43.6515 27.8362 43.4942Z"
          fill="#FFE7F5"
        />
        <path
          d="M27.8362 42.2733C27.8362 42.1159 27.7146 41.9884 27.5647 41.9884C27.4147 41.9884 27.2931 42.1159 27.2931 42.2733C27.2931 42.4306 27.4147 42.5581 27.5647 42.5581C27.7146 42.5581 27.8362 42.4306 27.8362 42.2733Z"
          fill="#FFE7F5"
        />
        <path
          d="M27.8362 41.0523C27.8362 40.895 27.7146 40.7674 27.5647 40.7674C27.4147 40.7674 27.2931 40.895 27.2931 41.0523C27.2931 41.2097 27.4147 41.3372 27.5647 41.3372C27.7146 41.3372 27.8362 41.2097 27.8362 41.0523Z"
          fill="#FFE7F5"
        />
        <path
          d="M27.8362 39.8314C27.8362 39.6741 27.7146 39.5465 27.5647 39.5465C27.4147 39.5465 27.2931 39.6741 27.2931 39.8314C27.2931 39.9887 27.4147 40.1163 27.5647 40.1163C27.7146 40.1163 27.8362 39.9887 27.8362 39.8314Z"
          fill="#FFE7F5"
        />
        <path
          d="M27.8362 38.6105C27.8362 38.4531 27.7146 38.3256 27.5647 38.3256C27.4147 38.3256 27.2931 38.4531 27.2931 38.6105C27.2931 38.7678 27.4147 38.8953 27.5647 38.8953C27.7146 38.8953 27.8362 38.7678 27.8362 38.6105Z"
          fill="#FFE7F5"
        />
        <path
          d="M29 44.7151C29 44.5578 28.8784 44.4302 28.7284 44.4302C28.5785 44.4302 28.4569 44.5578 28.4569 44.7151C28.4569 44.8725 28.5785 45 28.7284 45C28.8784 45 29 44.8725 29 44.7151Z"
          fill="#FFE7F5"
        />
        <path
          d="M29 43.4942C29 43.3368 28.8784 43.2093 28.7284 43.2093C28.5785 43.2093 28.4569 43.3368 28.4569 43.4942C28.4569 43.6515 28.5785 43.7791 28.7284 43.7791C28.8784 43.7791 29 43.6515 29 43.4942Z"
          fill="#FFE7F5"
        />
        <path
          d="M29 42.2733C29 42.1159 28.8784 41.9884 28.7284 41.9884C28.5785 41.9884 28.4569 42.1159 28.4569 42.2733C28.4569 42.4306 28.5785 42.5581 28.7284 42.5581C28.8784 42.5581 29 42.4306 29 42.2733Z"
          fill="#FFE7F5"
        />
        <path
          d="M29 41.0523C29 40.895 28.8784 40.7674 28.7284 40.7674C28.5785 40.7674 28.4569 40.895 28.4569 41.0523C28.4569 41.2097 28.5785 41.3372 28.7284 41.3372C28.8784 41.3372 29 41.2097 29 41.0523Z"
          fill="#FFE7F5"
        />
        <path
          d="M29 39.8314C29 39.6741 28.8784 39.5465 28.7284 39.5465C28.5785 39.5465 28.4569 39.6741 28.4569 39.8314C28.4569 39.9887 28.5785 40.1163 28.7284 40.1163C28.8784 40.1163 29 39.9887 29 39.8314Z"
          fill="#FFE7F5"
        />
        <path
          d="M29 38.6105C29 38.4531 28.8784 38.3256 28.7284 38.3256C28.5785 38.3256 28.4569 38.4531 28.4569 38.6105C28.4569 38.7678 28.5785 38.8953 28.7284 38.8953C28.8784 38.8953 29 38.7678 29 38.6105Z"
          fill="#FFE7F5"
        />
        <path
          d="M20.8534 37.3895C20.8534 37.2322 20.7319 37.1047 20.5819 37.1047C20.4319 37.1047 20.3103 37.2322 20.3103 37.3895C20.3103 37.5469 20.4319 37.6744 20.5819 37.6744C20.7319 37.6744 20.8534 37.5469 20.8534 37.3895Z"
          fill="#FFE7F5"
        />
        <path
          d="M20.8534 36.1686C20.8534 36.0113 20.7319 35.8837 20.5819 35.8837C20.4319 35.8837 20.3103 36.0113 20.3103 36.1686C20.3103 36.3259 20.4319 36.4535 20.5819 36.4535C20.7319 36.4535 20.8534 36.3259 20.8534 36.1686Z"
          fill="#FFE7F5"
        />
        <path
          d="M20.8534 34.9477C20.8534 34.7903 20.7319 34.6628 20.5819 34.6628C20.4319 34.6628 20.3103 34.7903 20.3103 34.9477C20.3103 35.105 20.4319 35.2326 20.5819 35.2326C20.7319 35.2326 20.8534 35.105 20.8534 34.9477Z"
          fill="#FFE7F5"
        />
        <path
          d="M20.8534 33.7267C20.8534 33.5694 20.7319 33.4419 20.5819 33.4419C20.4319 33.4419 20.3103 33.5694 20.3103 33.7267C20.3103 33.8841 20.4319 34.0116 20.5819 34.0116C20.7319 34.0116 20.8534 33.8841 20.8534 33.7267Z"
          fill="#FFE7F5"
        />
        <path
          d="M20.8534 32.5058C20.8534 32.3485 20.7319 32.2209 20.5819 32.2209C20.4319 32.2209 20.3103 32.3485 20.3103 32.5058C20.3103 32.6632 20.4319 32.7907 20.5819 32.7907C20.7319 32.7907 20.8534 32.6632 20.8534 32.5058Z"
          fill="#FFE7F5"
        />
        <path
          d="M20.8534 31.2849C20.8534 31.1275 20.7319 31 20.5819 31C20.4319 31 20.3103 31.1275 20.3103 31.2849C20.3103 31.4422 20.4319 31.5698 20.5819 31.5698C20.7319 31.5698 20.8534 31.4422 20.8534 31.2849Z"
          fill="#FFE7F5"
        />
        <path
          d="M22.0172 37.3895C22.0172 37.2322 21.8957 37.1047 21.7457 37.1047C21.5957 37.1047 21.4741 37.2322 21.4741 37.3895C21.4741 37.5469 21.5957 37.6744 21.7457 37.6744C21.8957 37.6744 22.0172 37.5469 22.0172 37.3895Z"
          fill="#FFE7F5"
        />
        <path
          d="M22.0172 36.1686C22.0172 36.0113 21.8957 35.8837 21.7457 35.8837C21.5957 35.8837 21.4741 36.0113 21.4741 36.1686C21.4741 36.3259 21.5957 36.4535 21.7457 36.4535C21.8957 36.4535 22.0172 36.3259 22.0172 36.1686Z"
          fill="#FFE7F5"
        />
        <path
          d="M22.0172 34.9477C22.0172 34.7903 21.8957 34.6628 21.7457 34.6628C21.5957 34.6628 21.4741 34.7903 21.4741 34.9477C21.4741 35.105 21.5957 35.2326 21.7457 35.2326C21.8957 35.2326 22.0172 35.105 22.0172 34.9477Z"
          fill="#FFE7F5"
        />
        <path
          d="M22.0172 33.7267C22.0172 33.5694 21.8957 33.4419 21.7457 33.4419C21.5957 33.4419 21.4741 33.5694 21.4741 33.7267C21.4741 33.8841 21.5957 34.0116 21.7457 34.0116C21.8957 34.0116 22.0172 33.8841 22.0172 33.7267Z"
          fill="#FFE7F5"
        />
        <path
          d="M22.0172 32.5058C22.0172 32.3485 21.8957 32.2209 21.7457 32.2209C21.5957 32.2209 21.4741 32.3485 21.4741 32.5058C21.4741 32.6632 21.5957 32.7907 21.7457 32.7907C21.8957 32.7907 22.0172 32.6632 22.0172 32.5058Z"
          fill="#FFE7F5"
        />
        <path
          d="M22.0172 31.2849C22.0172 31.1275 21.8957 31 21.7457 31C21.5957 31 21.4741 31.1275 21.4741 31.2849C21.4741 31.4422 21.5957 31.5698 21.7457 31.5698C21.8957 31.5698 22.0172 31.4422 22.0172 31.2849Z"
          fill="#FFE7F5"
        />
        <path
          d="M23.181 37.3895C23.181 37.2322 23.0595 37.1047 22.9095 37.1047C22.7595 37.1047 22.6379 37.2322 22.6379 37.3895C22.6379 37.5469 22.7595 37.6744 22.9095 37.6744C23.0595 37.6744 23.181 37.5469 23.181 37.3895Z"
          fill="#FFE7F5"
        />
        <path
          d="M23.181 36.1686C23.181 36.0113 23.0595 35.8837 22.9095 35.8837C22.7595 35.8837 22.6379 36.0113 22.6379 36.1686C22.6379 36.3259 22.7595 36.4535 22.9095 36.4535C23.0595 36.4535 23.181 36.3259 23.181 36.1686Z"
          fill="#FFE7F5"
        />
        <path
          d="M23.181 34.9477C23.181 34.7903 23.0595 34.6628 22.9095 34.6628C22.7595 34.6628 22.6379 34.7903 22.6379 34.9477C22.6379 35.105 22.7595 35.2326 22.9095 35.2326C23.0595 35.2326 23.181 35.105 23.181 34.9477Z"
          fill="#FFE7F5"
        />
        <path
          d="M23.181 33.7267C23.181 33.5694 23.0595 33.4419 22.9095 33.4419C22.7595 33.4419 22.6379 33.5694 22.6379 33.7267C22.6379 33.8841 22.7595 34.0116 22.9095 34.0116C23.0595 34.0116 23.181 33.8841 23.181 33.7267Z"
          fill="#FFE7F5"
        />
        <path
          d="M23.181 32.5058C23.181 32.3485 23.0595 32.2209 22.9095 32.2209C22.7595 32.2209 22.6379 32.3485 22.6379 32.5058C22.6379 32.6632 22.7595 32.7907 22.9095 32.7907C23.0595 32.7907 23.181 32.6632 23.181 32.5058Z"
          fill="#FFE7F5"
        />
        <path
          d="M23.181 31.2849C23.181 31.1275 23.0595 31 22.9095 31C22.7595 31 22.6379 31.1275 22.6379 31.2849C22.6379 31.4422 22.7595 31.5698 22.9095 31.5698C23.0595 31.5698 23.181 31.4422 23.181 31.2849Z"
          fill="#FFE7F5"
        />
        <path
          d="M24.3448 37.3895C24.3448 37.2322 24.2232 37.1047 24.0733 37.1047C23.9233 37.1047 23.8017 37.2322 23.8017 37.3895C23.8017 37.5469 23.9233 37.6744 24.0733 37.6744C24.2232 37.6744 24.3448 37.5469 24.3448 37.3895Z"
          fill="#FFE7F5"
        />
        <path
          d="M24.3448 36.1686C24.3448 36.0113 24.2232 35.8837 24.0733 35.8837C23.9233 35.8837 23.8017 36.0113 23.8017 36.1686C23.8017 36.3259 23.9233 36.4535 24.0733 36.4535C24.2232 36.4535 24.3448 36.3259 24.3448 36.1686Z"
          fill="#FFE7F5"
        />
        <path
          d="M24.3448 34.9477C24.3448 34.7903 24.2232 34.6628 24.0733 34.6628C23.9233 34.6628 23.8017 34.7903 23.8017 34.9477C23.8017 35.105 23.9233 35.2326 24.0733 35.2326C24.2232 35.2326 24.3448 35.105 24.3448 34.9477Z"
          fill="#FFE7F5"
        />
        <path
          d="M24.3448 33.7267C24.3448 33.5694 24.2232 33.4419 24.0733 33.4419C23.9233 33.4419 23.8017 33.5694 23.8017 33.7267C23.8017 33.8841 23.9233 34.0116 24.0733 34.0116C24.2232 34.0116 24.3448 33.8841 24.3448 33.7267Z"
          fill="#FFE7F5"
        />
        <path
          d="M24.3448 32.5058C24.3448 32.3485 24.2232 32.2209 24.0733 32.2209C23.9233 32.2209 23.8017 32.3485 23.8017 32.5058C23.8017 32.6632 23.9233 32.7907 24.0733 32.7907C24.2232 32.7907 24.3448 32.6632 24.3448 32.5058Z"
          fill="#FFE7F5"
        />
        <path
          d="M24.3448 31.2849C24.3448 31.1275 24.2232 31 24.0733 31C23.9233 31 23.8017 31.1275 23.8017 31.2849C23.8017 31.4422 23.9233 31.5698 24.0733 31.5698C24.2232 31.5698 24.3448 31.4422 24.3448 31.2849Z"
          fill="#FFE7F5"
        />
        <path
          d="M25.5086 37.3895C25.5086 37.2322 25.387 37.1047 25.2371 37.1047C25.0871 37.1047 24.9655 37.2322 24.9655 37.3895C24.9655 37.5469 25.0871 37.6744 25.2371 37.6744C25.387 37.6744 25.5086 37.5469 25.5086 37.3895Z"
          fill="#FFE7F5"
        />
        <path
          d="M25.5086 36.1686C25.5086 36.0113 25.387 35.8837 25.2371 35.8837C25.0871 35.8837 24.9655 36.0113 24.9655 36.1686C24.9655 36.3259 25.0871 36.4535 25.2371 36.4535C25.387 36.4535 25.5086 36.3259 25.5086 36.1686Z"
          fill="#FFE7F5"
        />
        <path
          d="M25.5086 34.9477C25.5086 34.7903 25.387 34.6628 25.2371 34.6628C25.0871 34.6628 24.9655 34.7903 24.9655 34.9477C24.9655 35.105 25.0871 35.2326 25.2371 35.2326C25.387 35.2326 25.5086 35.105 25.5086 34.9477Z"
          fill="#FFE7F5"
        />
        <path
          d="M25.5086 33.7267C25.5086 33.5694 25.387 33.4419 25.2371 33.4419C25.0871 33.4419 24.9655 33.5694 24.9655 33.7267C24.9655 33.8841 25.0871 34.0116 25.2371 34.0116C25.387 34.0116 25.5086 33.8841 25.5086 33.7267Z"
          fill="#FFE7F5"
        />
        <path
          d="M25.5086 32.5058C25.5086 32.3485 25.387 32.2209 25.2371 32.2209C25.0871 32.2209 24.9655 32.3485 24.9655 32.5058C24.9655 32.6632 25.0871 32.7907 25.2371 32.7907C25.387 32.7907 25.5086 32.6632 25.5086 32.5058Z"
          fill="#FFE7F5"
        />
        <path
          d="M25.5086 31.2849C25.5086 31.1275 25.387 31 25.2371 31C25.0871 31 24.9655 31.1275 24.9655 31.2849C24.9655 31.4422 25.0871 31.5698 25.2371 31.5698C25.387 31.5698 25.5086 31.4422 25.5086 31.2849Z"
          fill="#FFE7F5"
        />
        <path
          d="M26.6724 37.3895C26.6724 37.2322 26.5508 37.1047 26.4009 37.1047C26.2509 37.1047 26.1293 37.2322 26.1293 37.3895C26.1293 37.5469 26.2509 37.6744 26.4009 37.6744C26.5508 37.6744 26.6724 37.5469 26.6724 37.3895Z"
          fill="#FFE7F5"
        />
        <path
          d="M26.6724 36.1686C26.6724 36.0113 26.5508 35.8837 26.4009 35.8837C26.2509 35.8837 26.1293 36.0113 26.1293 36.1686C26.1293 36.3259 26.2509 36.4535 26.4009 36.4535C26.5508 36.4535 26.6724 36.3259 26.6724 36.1686Z"
          fill="#FFE7F5"
        />
        <path
          d="M26.6724 34.9477C26.6724 34.7903 26.5508 34.6628 26.4009 34.6628C26.2509 34.6628 26.1293 34.7903 26.1293 34.9477C26.1293 35.105 26.2509 35.2326 26.4009 35.2326C26.5508 35.2326 26.6724 35.105 26.6724 34.9477Z"
          fill="#FFE7F5"
        />
        <path
          d="M26.6724 33.7267C26.6724 33.5694 26.5508 33.4419 26.4009 33.4419C26.2509 33.4419 26.1293 33.5694 26.1293 33.7267C26.1293 33.8841 26.2509 34.0116 26.4009 34.0116C26.5508 34.0116 26.6724 33.8841 26.6724 33.7267Z"
          fill="#FFE7F5"
        />
        <path
          d="M26.6724 32.5058C26.6724 32.3485 26.5508 32.2209 26.4009 32.2209C26.2509 32.2209 26.1293 32.3485 26.1293 32.5058C26.1293 32.6632 26.2509 32.7907 26.4009 32.7907C26.5508 32.7907 26.6724 32.6632 26.6724 32.5058Z"
          fill="#FFE7F5"
        />
        <path
          d="M26.6724 31.2849C26.6724 31.1275 26.5508 31 26.4009 31C26.2509 31 26.1293 31.1275 26.1293 31.2849C26.1293 31.4422 26.2509 31.5698 26.4009 31.5698C26.5508 31.5698 26.6724 31.4422 26.6724 31.2849Z"
          fill="#FFE7F5"
        />
        <path
          d="M27.8362 37.3895C27.8362 37.2322 27.7146 37.1047 27.5647 37.1047C27.4147 37.1047 27.2931 37.2322 27.2931 37.3895C27.2931 37.5469 27.4147 37.6744 27.5647 37.6744C27.7146 37.6744 27.8362 37.5469 27.8362 37.3895Z"
          fill="#FFE7F5"
        />
        <path
          d="M27.8362 36.1686C27.8362 36.0113 27.7146 35.8837 27.5647 35.8837C27.4147 35.8837 27.2931 36.0113 27.2931 36.1686C27.2931 36.3259 27.4147 36.4535 27.5647 36.4535C27.7146 36.4535 27.8362 36.3259 27.8362 36.1686Z"
          fill="#FFE7F5"
        />
        <path
          d="M27.8362 34.9477C27.8362 34.7903 27.7146 34.6628 27.5647 34.6628C27.4147 34.6628 27.2931 34.7903 27.2931 34.9477C27.2931 35.105 27.4147 35.2326 27.5647 35.2326C27.7146 35.2326 27.8362 35.105 27.8362 34.9477Z"
          fill="#FFE7F5"
        />
        <path
          d="M27.8362 33.7267C27.8362 33.5694 27.7146 33.4419 27.5647 33.4419C27.4147 33.4419 27.2931 33.5694 27.2931 33.7267C27.2931 33.8841 27.4147 34.0116 27.5647 34.0116C27.7146 34.0116 27.8362 33.8841 27.8362 33.7267Z"
          fill="#FFE7F5"
        />
        <path
          d="M27.8362 32.5058C27.8362 32.3485 27.7146 32.2209 27.5647 32.2209C27.4147 32.2209 27.2931 32.3485 27.2931 32.5058C27.2931 32.6632 27.4147 32.7907 27.5647 32.7907C27.7146 32.7907 27.8362 32.6632 27.8362 32.5058Z"
          fill="#FFE7F5"
        />
        <path
          d="M27.8362 31.2849C27.8362 31.1275 27.7146 31 27.5647 31C27.4147 31 27.2931 31.1275 27.2931 31.2849C27.2931 31.4422 27.4147 31.5698 27.5647 31.5698C27.7146 31.5698 27.8362 31.4422 27.8362 31.2849Z"
          fill="#FFE7F5"
        />
        <path
          d="M29 37.3895C29 37.2322 28.8784 37.1047 28.7284 37.1047C28.5785 37.1047 28.4569 37.2322 28.4569 37.3895C28.4569 37.5469 28.5785 37.6744 28.7284 37.6744C28.8784 37.6744 29 37.5469 29 37.3895Z"
          fill="#FFE7F5"
        />
        <path
          d="M29 36.1686C29 36.0113 28.8784 35.8837 28.7284 35.8837C28.5785 35.8837 28.4569 36.0113 28.4569 36.1686C28.4569 36.3259 28.5785 36.4535 28.7284 36.4535C28.8784 36.4535 29 36.3259 29 36.1686Z"
          fill="#FFE7F5"
        />
        <path
          d="M29 34.9477C29 34.7903 28.8784 34.6628 28.7284 34.6628C28.5785 34.6628 28.4569 34.7903 28.4569 34.9477C28.4569 35.105 28.5785 35.2326 28.7284 35.2326C28.8784 35.2326 29 35.105 29 34.9477Z"
          fill="#FFE7F5"
        />
        <path
          d="M29 33.7267C29 33.5694 28.8784 33.4419 28.7284 33.4419C28.5785 33.4419 28.4569 33.5694 28.4569 33.7267C28.4569 33.8841 28.5785 34.0116 28.7284 34.0116C28.8784 34.0116 29 33.8841 29 33.7267Z"
          fill="#FFE7F5"
        />
        <path
          d="M29 32.5058C29 32.3485 28.8784 32.2209 28.7284 32.2209C28.5785 32.2209 28.4569 32.3485 28.4569 32.5058C28.4569 32.6632 28.5785 32.7907 28.7284 32.7907C28.8784 32.7907 29 32.6632 29 32.5058Z"
          fill="#FFE7F5"
        />
        <path
          d="M29 31.2849C29 31.1275 28.8784 31 28.7284 31C28.5785 31 28.4569 31.1275 28.4569 31.2849C28.4569 31.4422 28.5785 31.5698 28.7284 31.5698C28.8784 31.5698 29 31.4422 29 31.2849Z"
          fill="#FFE7F5"
        />
      </g>
    </g>
  </g>
  <defs>
    <linearGradient
      id="paint0_linear"
      x1="19.9999"
      y1="26.915"
      x2="19.9999"
      y2="37.8571"
      gradientUnits="userSpaceOnUse"
    >
      <stop stop-color="#EBA39B" />
      <stop offset="0.709149" stop-color="#FFC7B9" />
    </linearGradient>
    <linearGradient
      id="paint1_linear"
      x1="7.90323"
      y1="33.8462"
      x2="33.9839"
      y2="38.1042"
      gradientUnits="userSpaceOnUse"
    >
      <stop stop-color="#DC80D2" />
      <stop offset="1" stop-color="#D963A8" />
    </linearGradient>
  </defs>
</svg>
