;<svg
  width="40"
  height="40"
  viewBox="0 0 40 40"
  fill="none"
  xmlns="http://www.w3.org/2000/svg"
>
  <circle cx="20" cy="20" r="18.5" fill="#FBFBFB" stroke="#F0F0F0" />
  <mask
    id="mask0"
    style="mask-type:alpha"
    maskUnits="userSpaceOnUse"
    x="2"
    y="2"
    width="36"
    height="36"
  >
    <circle cx="20" cy="20" r="18" fill="#FFCD6C" />
  </mask>
  <g mask="url(#mask0)">
    <mask
      id="mask1"
      style="mask-type:alpha"
      maskUnits="userSpaceOnUse"
      x="2"
      y="2"
      width="36"
      height="36"
    >
      <circle cx="20" cy="20" r="18" fill="#C4C4C4" />
    </mask>
    <g mask="url(#mask1)">
      <mask
        id="mask2"
        style="mask-type:alpha"
        maskUnits="userSpaceOnUse"
        x="6"
        y="31"
        width="28"
        height="7"
      >
        <path
          d="M8.68919 32.8674C7.95946 32.9599 6.5 34.0333 6.5 37.5866H33.5C33.5 34.0333 32.0405 32.9599 31.3108 32.8674C30.9605 32.7502 28.7324 31.9858 27.6622 31.6182C27.6622 34.5432 22.8396 35.4863 20 35.6262C17.1604 35.4863 12.3378 34.5432 12.3378 31.6182C11.2676 31.9858 9.03946 32.7502 8.68919 32.8674Z"
          fill="url(#paint0_linear)"
        />
      </mask>
      <g mask="url(#mask2)">
        <path
          d="M11.5431 43.7151C11.5431 43.5578 11.4215 43.4302 11.2716 43.4302C11.1216 43.4302 11 43.5578 11 43.7151C11 43.8725 11.1216 44 11.2716 44C11.4215 44 11.5431 43.8725 11.5431 43.7151Z"
          fill="#FFE7F5"
        />
        <path
          d="M11.5431 42.4942C11.5431 42.3368 11.4215 42.2093 11.2716 42.2093C11.1216 42.2093 11 42.3368 11 42.4942C11 42.6515 11.1216 42.7791 11.2716 42.7791C11.4215 42.7791 11.5431 42.6515 11.5431 42.4942Z"
          fill="#FFE7F5"
        />
        <path
          d="M11.5431 41.2733C11.5431 41.1159 11.4215 40.9884 11.2716 40.9884C11.1216 40.9884 11 41.1159 11 41.2733C11 41.4306 11.1216 41.5581 11.2716 41.5581C11.4215 41.5581 11.5431 41.4306 11.5431 41.2733Z"
          fill="#FFE7F5"
        />
        <path
          d="M11.5431 40.0523C11.5431 39.895 11.4215 39.7674 11.2716 39.7674C11.1216 39.7674 11 39.895 11 40.0523C11 40.2097 11.1216 40.3372 11.2716 40.3372C11.4215 40.3372 11.5431 40.2097 11.5431 40.0523Z"
          fill="#FFE7F5"
        />
        <path
          d="M11.5431 38.8314C11.5431 38.6741 11.4215 38.5465 11.2716 38.5465C11.1216 38.5465 11 38.6741 11 38.8314C11 38.9887 11.1216 39.1163 11.2716 39.1163C11.4215 39.1163 11.5431 38.9887 11.5431 38.8314Z"
          fill="#FFE7F5"
        />
        <path
          d="M11.5431 37.6105C11.5431 37.4531 11.4215 37.3256 11.2716 37.3256C11.1216 37.3256 11 37.4531 11 37.6105C11 37.7678 11.1216 37.8953 11.2716 37.8953C11.4215 37.8953 11.5431 37.7678 11.5431 37.6105Z"
          fill="#FFE7F5"
        />
        <path
          d="M12.7069 43.7151C12.7069 43.5578 12.5853 43.4302 12.4353 43.4302C12.2854 43.4302 12.1638 43.5578 12.1638 43.7151C12.1638 43.8725 12.2854 44 12.4353 44C12.5853 44 12.7069 43.8725 12.7069 43.7151Z"
          fill="#FFE7F5"
        />
        <path
          d="M12.7069 42.4942C12.7069 42.3368 12.5853 42.2093 12.4353 42.2093C12.2854 42.2093 12.1638 42.3368 12.1638 42.4942C12.1638 42.6515 12.2854 42.7791 12.4353 42.7791C12.5853 42.7791 12.7069 42.6515 12.7069 42.4942Z"
          fill="#FFE7F5"
        />
        <path
          d="M12.7069 41.2733C12.7069 41.1159 12.5853 40.9884 12.4353 40.9884C12.2854 40.9884 12.1638 41.1159 12.1638 41.2733C12.1638 41.4306 12.2854 41.5581 12.4353 41.5581C12.5853 41.5581 12.7069 41.4306 12.7069 41.2733Z"
          fill="#FFE7F5"
        />
        <path
          d="M12.7069 40.0523C12.7069 39.895 12.5853 39.7674 12.4353 39.7674C12.2854 39.7674 12.1638 39.895 12.1638 40.0523C12.1638 40.2097 12.2854 40.3372 12.4353 40.3372C12.5853 40.3372 12.7069 40.2097 12.7069 40.0523Z"
          fill="#FFE7F5"
        />
        <path
          d="M12.7069 38.8314C12.7069 38.6741 12.5853 38.5465 12.4353 38.5465C12.2854 38.5465 12.1638 38.6741 12.1638 38.8314C12.1638 38.9887 12.2854 39.1163 12.4353 39.1163C12.5853 39.1163 12.7069 38.9887 12.7069 38.8314Z"
          fill="#FFE7F5"
        />
        <path
          d="M12.7069 37.6105C12.7069 37.4531 12.5853 37.3256 12.4353 37.3256C12.2854 37.3256 12.1638 37.4531 12.1638 37.6105C12.1638 37.7678 12.2854 37.8953 12.4353 37.8953C12.5853 37.8953 12.7069 37.7678 12.7069 37.6105Z"
          fill="#FFE7F5"
        />
        <path
          d="M13.8707 43.7151C13.8707 43.5578 13.7491 43.4302 13.5991 43.4302C13.4492 43.4302 13.3276 43.5578 13.3276 43.7151C13.3276 43.8725 13.4492 44 13.5991 44C13.7491 44 13.8707 43.8725 13.8707 43.7151Z"
          fill="#FFE7F5"
        />
        <path
          d="M13.8707 42.4942C13.8707 42.3368 13.7491 42.2093 13.5991 42.2093C13.4492 42.2093 13.3276 42.3368 13.3276 42.4942C13.3276 42.6515 13.4492 42.7791 13.5991 42.7791C13.7491 42.7791 13.8707 42.6515 13.8707 42.4942Z"
          fill="#FFE7F5"
        />
        <path
          d="M13.8707 41.2733C13.8707 41.1159 13.7491 40.9884 13.5991 40.9884C13.4492 40.9884 13.3276 41.1159 13.3276 41.2733C13.3276 41.4306 13.4492 41.5581 13.5991 41.5581C13.7491 41.5581 13.8707 41.4306 13.8707 41.2733Z"
          fill="#FFE7F5"
        />
        <path
          d="M13.8707 40.0523C13.8707 39.895 13.7491 39.7674 13.5991 39.7674C13.4492 39.7674 13.3276 39.895 13.3276 40.0523C13.3276 40.2097 13.4492 40.3372 13.5991 40.3372C13.7491 40.3372 13.8707 40.2097 13.8707 40.0523Z"
          fill="#FFE7F5"
        />
        <path
          d="M13.8707 38.8314C13.8707 38.6741 13.7491 38.5465 13.5991 38.5465C13.4492 38.5465 13.3276 38.6741 13.3276 38.8314C13.3276 38.9887 13.4492 39.1163 13.5991 39.1163C13.7491 39.1163 13.8707 38.9887 13.8707 38.8314Z"
          fill="#FFE7F5"
        />
        <path
          d="M13.8707 37.6105C13.8707 37.4531 13.7491 37.3256 13.5991 37.3256C13.4492 37.3256 13.3276 37.4531 13.3276 37.6105C13.3276 37.7678 13.4492 37.8953 13.5991 37.8953C13.7491 37.8953 13.8707 37.7678 13.8707 37.6105Z"
          fill="#FFE7F5"
        />
        <path
          d="M15.0345 43.7151C15.0345 43.5578 14.9129 43.4302 14.7629 43.4302C14.613 43.4302 14.4914 43.5578 14.4914 43.7151C14.4914 43.8725 14.613 44 14.7629 44C14.9129 44 15.0345 43.8725 15.0345 43.7151Z"
          fill="#FFE7F5"
        />
        <path
          d="M15.0345 42.4942C15.0345 42.3368 14.9129 42.2093 14.7629 42.2093C14.613 42.2093 14.4914 42.3368 14.4914 42.4942C14.4914 42.6515 14.613 42.7791 14.7629 42.7791C14.9129 42.7791 15.0345 42.6515 15.0345 42.4942Z"
          fill="#FFE7F5"
        />
        <path
          d="M15.0345 41.2733C15.0345 41.1159 14.9129 40.9884 14.7629 40.9884C14.613 40.9884 14.4914 41.1159 14.4914 41.2733C14.4914 41.4306 14.613 41.5581 14.7629 41.5581C14.9129 41.5581 15.0345 41.4306 15.0345 41.2733Z"
          fill="#FFE7F5"
        />
        <path
          d="M15.0345 40.0523C15.0345 39.895 14.9129 39.7674 14.7629 39.7674C14.613 39.7674 14.4914 39.895 14.4914 40.0523C14.4914 40.2097 14.613 40.3372 14.7629 40.3372C14.9129 40.3372 15.0345 40.2097 15.0345 40.0523Z"
          fill="#FFE7F5"
        />
        <path
          d="M15.0345 38.8314C15.0345 38.6741 14.9129 38.5465 14.7629 38.5465C14.613 38.5465 14.4914 38.6741 14.4914 38.8314C14.4914 38.9887 14.613 39.1163 14.7629 39.1163C14.9129 39.1163 15.0345 38.9887 15.0345 38.8314Z"
          fill="#FFE7F5"
        />
        <path
          d="M15.0345 37.6105C15.0345 37.4531 14.9129 37.3256 14.7629 37.3256C14.613 37.3256 14.4914 37.4531 14.4914 37.6105C14.4914 37.7678 14.613 37.8953 14.7629 37.8953C14.9129 37.8953 15.0345 37.7678 15.0345 37.6105Z"
          fill="#FFE7F5"
        />
        <path
          d="M16.1983 43.7151C16.1983 43.5578 16.0767 43.4302 15.9267 43.4302C15.7768 43.4302 15.6552 43.5578 15.6552 43.7151C15.6552 43.8725 15.7768 44 15.9267 44C16.0767 44 16.1983 43.8725 16.1983 43.7151Z"
          fill="#FFE7F5"
        />
        <path
          d="M16.1983 42.4942C16.1983 42.3368 16.0767 42.2093 15.9267 42.2093C15.7768 42.2093 15.6552 42.3368 15.6552 42.4942C15.6552 42.6515 15.7768 42.7791 15.9267 42.7791C16.0767 42.7791 16.1983 42.6515 16.1983 42.4942Z"
          fill="#FFE7F5"
        />
        <path
          d="M16.1983 41.2733C16.1983 41.1159 16.0767 40.9884 15.9267 40.9884C15.7768 40.9884 15.6552 41.1159 15.6552 41.2733C15.6552 41.4306 15.7768 41.5581 15.9267 41.5581C16.0767 41.5581 16.1983 41.4306 16.1983 41.2733Z"
          fill="#FFE7F5"
        />
        <path
          d="M16.1983 40.0523C16.1983 39.895 16.0767 39.7674 15.9267 39.7674C15.7768 39.7674 15.6552 39.895 15.6552 40.0523C15.6552 40.2097 15.7768 40.3372 15.9267 40.3372C16.0767 40.3372 16.1983 40.2097 16.1983 40.0523Z"
          fill="#FFE7F5"
        />
        <path
          d="M16.1983 38.8314C16.1983 38.6741 16.0767 38.5465 15.9267 38.5465C15.7768 38.5465 15.6552 38.6741 15.6552 38.8314C15.6552 38.9887 15.7768 39.1163 15.9267 39.1163C16.0767 39.1163 16.1983 38.9887 16.1983 38.8314Z"
          fill="#FFE7F5"
        />
        <path
          d="M16.1983 37.6105C16.1983 37.4531 16.0767 37.3256 15.9267 37.3256C15.7768 37.3256 15.6552 37.4531 15.6552 37.6105C15.6552 37.7678 15.7768 37.8953 15.9267 37.8953C16.0767 37.8953 16.1983 37.7678 16.1983 37.6105Z"
          fill="#FFE7F5"
        />
        <path
          d="M17.3621 43.7151C17.3621 43.5578 17.2405 43.4302 17.0905 43.4302C16.9405 43.4302 16.819 43.5578 16.819 43.7151C16.819 43.8725 16.9405 44 17.0905 44C17.2405 44 17.3621 43.8725 17.3621 43.7151Z"
          fill="#FFE7F5"
        />
        <path
          d="M17.3621 42.4942C17.3621 42.3368 17.2405 42.2093 17.0905 42.2093C16.9405 42.2093 16.819 42.3368 16.819 42.4942C16.819 42.6515 16.9405 42.7791 17.0905 42.7791C17.2405 42.7791 17.3621 42.6515 17.3621 42.4942Z"
          fill="#FFE7F5"
        />
        <path
          d="M17.3621 41.2733C17.3621 41.1159 17.2405 40.9884 17.0905 40.9884C16.9405 40.9884 16.819 41.1159 16.819 41.2733C16.819 41.4306 16.9405 41.5581 17.0905 41.5581C17.2405 41.5581 17.3621 41.4306 17.3621 41.2733Z"
          fill="#FFE7F5"
        />
        <path
          d="M17.3621 40.0523C17.3621 39.895 17.2405 39.7674 17.0905 39.7674C16.9405 39.7674 16.819 39.895 16.819 40.0523C16.819 40.2097 16.9405 40.3372 17.0905 40.3372C17.2405 40.3372 17.3621 40.2097 17.3621 40.0523Z"
          fill="#FFE7F5"
        />
        <path
          d="M17.3621 38.8314C17.3621 38.6741 17.2405 38.5465 17.0905 38.5465C16.9405 38.5465 16.819 38.6741 16.819 38.8314C16.819 38.9887 16.9405 39.1163 17.0905 39.1163C17.2405 39.1163 17.3621 38.9887 17.3621 38.8314Z"
          fill="#FFE7F5"
        />
        <path
          d="M17.3621 37.6105C17.3621 37.4531 17.2405 37.3256 17.0905 37.3256C16.9405 37.3256 16.819 37.4531 16.819 37.6105C16.819 37.7678 16.9405 37.8953 17.0905 37.8953C17.2405 37.8953 17.3621 37.7678 17.3621 37.6105Z"
          fill="#FFE7F5"
        />
        <path
          d="M18.5259 43.7151C18.5259 43.5578 18.4043 43.4302 18.2543 43.4302C18.1043 43.4302 17.9828 43.5578 17.9828 43.7151C17.9828 43.8725 18.1043 44 18.2543 44C18.4043 44 18.5259 43.8725 18.5259 43.7151Z"
          fill="#FFE7F5"
        />
        <path
          d="M18.5259 42.4942C18.5259 42.3368 18.4043 42.2093 18.2543 42.2093C18.1043 42.2093 17.9828 42.3368 17.9828 42.4942C17.9828 42.6515 18.1043 42.7791 18.2543 42.7791C18.4043 42.7791 18.5259 42.6515 18.5259 42.4942Z"
          fill="#FFE7F5"
        />
        <path
          d="M18.5259 41.2733C18.5259 41.1159 18.4043 40.9884 18.2543 40.9884C18.1043 40.9884 17.9828 41.1159 17.9828 41.2733C17.9828 41.4306 18.1043 41.5581 18.2543 41.5581C18.4043 41.5581 18.5259 41.4306 18.5259 41.2733Z"
          fill="#FFE7F5"
        />
        <path
          d="M18.5259 40.0523C18.5259 39.895 18.4043 39.7674 18.2543 39.7674C18.1043 39.7674 17.9828 39.895 17.9828 40.0523C17.9828 40.2097 18.1043 40.3372 18.2543 40.3372C18.4043 40.3372 18.5259 40.2097 18.5259 40.0523Z"
          fill="#FFE7F5"
        />
        <path
          d="M18.5259 38.8314C18.5259 38.6741 18.4043 38.5465 18.2543 38.5465C18.1043 38.5465 17.9828 38.6741 17.9828 38.8314C17.9828 38.9887 18.1043 39.1163 18.2543 39.1163C18.4043 39.1163 18.5259 38.9887 18.5259 38.8314Z"
          fill="#FFE7F5"
        />
        <path
          d="M18.5259 37.6105C18.5259 37.4531 18.4043 37.3256 18.2543 37.3256C18.1043 37.3256 17.9828 37.4531 17.9828 37.6105C17.9828 37.7678 18.1043 37.8953 18.2543 37.8953C18.4043 37.8953 18.5259 37.7678 18.5259 37.6105Z"
          fill="#FFE7F5"
        />
        <path
          d="M19.6897 43.7151C19.6897 43.5578 19.5681 43.4302 19.4181 43.4302C19.2681 43.4302 19.1466 43.5578 19.1466 43.7151C19.1466 43.8725 19.2681 44 19.4181 44C19.5681 44 19.6897 43.8725 19.6897 43.7151Z"
          fill="#FFE7F5"
        />
        <path
          d="M19.6897 42.4942C19.6897 42.3368 19.5681 42.2093 19.4181 42.2093C19.2681 42.2093 19.1466 42.3368 19.1466 42.4942C19.1466 42.6515 19.2681 42.7791 19.4181 42.7791C19.5681 42.7791 19.6897 42.6515 19.6897 42.4942Z"
          fill="#FFE7F5"
        />
        <path
          d="M19.6897 41.2733C19.6897 41.1159 19.5681 40.9884 19.4181 40.9884C19.2681 40.9884 19.1466 41.1159 19.1466 41.2733C19.1466 41.4306 19.2681 41.5581 19.4181 41.5581C19.5681 41.5581 19.6897 41.4306 19.6897 41.2733Z"
          fill="#FFE7F5"
        />
        <path
          d="M19.6897 40.0523C19.6897 39.895 19.5681 39.7674 19.4181 39.7674C19.2681 39.7674 19.1466 39.895 19.1466 40.0523C19.1466 40.2097 19.2681 40.3372 19.4181 40.3372C19.5681 40.3372 19.6897 40.2097 19.6897 40.0523Z"
          fill="#FFE7F5"
        />
        <path
          d="M19.6897 38.8314C19.6897 38.6741 19.5681 38.5465 19.4181 38.5465C19.2681 38.5465 19.1466 38.6741 19.1466 38.8314C19.1466 38.9887 19.2681 39.1163 19.4181 39.1163C19.5681 39.1163 19.6897 38.9887 19.6897 38.8314Z"
          fill="#FFE7F5"
        />
        <path
          d="M19.6897 37.6105C19.6897 37.4531 19.5681 37.3256 19.4181 37.3256C19.2681 37.3256 19.1466 37.4531 19.1466 37.6105C19.1466 37.7678 19.2681 37.8953 19.4181 37.8953C19.5681 37.8953 19.6897 37.7678 19.6897 37.6105Z"
          fill="#FFE7F5"
        />
        <path
          d="M11.5431 36.3895C11.5431 36.2322 11.4215 36.1047 11.2716 36.1047C11.1216 36.1047 11 36.2322 11 36.3895C11 36.5469 11.1216 36.6744 11.2716 36.6744C11.4215 36.6744 11.5431 36.5469 11.5431 36.3895Z"
          fill="#FFE7F5"
        />
        <path
          d="M11.5431 35.1686C11.5431 35.0113 11.4215 34.8837 11.2716 34.8837C11.1216 34.8837 11 35.0113 11 35.1686C11 35.3259 11.1216 35.4535 11.2716 35.4535C11.4215 35.4535 11.5431 35.3259 11.5431 35.1686Z"
          fill="#FFE7F5"
        />
        <path
          d="M11.5431 33.9477C11.5431 33.7903 11.4215 33.6628 11.2716 33.6628C11.1216 33.6628 11 33.7903 11 33.9477C11 34.105 11.1216 34.2326 11.2716 34.2326C11.4215 34.2326 11.5431 34.105 11.5431 33.9477Z"
          fill="#FFE7F5"
        />
        <path
          d="M11.5431 32.7267C11.5431 32.5694 11.4215 32.4419 11.2716 32.4419C11.1216 32.4419 11 32.5694 11 32.7267C11 32.8841 11.1216 33.0116 11.2716 33.0116C11.4215 33.0116 11.5431 32.8841 11.5431 32.7267Z"
          fill="#FFE7F5"
        />
        <path
          d="M11.5431 31.5058C11.5431 31.3485 11.4215 31.2209 11.2716 31.2209C11.1216 31.2209 11 31.3485 11 31.5058C11 31.6632 11.1216 31.7907 11.2716 31.7907C11.4215 31.7907 11.5431 31.6632 11.5431 31.5058Z"
          fill="#FFE7F5"
        />
        <path
          d="M11.5431 30.2849C11.5431 30.1275 11.4215 30 11.2716 30C11.1216 30 11 30.1275 11 30.2849C11 30.4422 11.1216 30.5698 11.2716 30.5698C11.4215 30.5698 11.5431 30.4422 11.5431 30.2849Z"
          fill="#FFE7F5"
        />
        <path
          d="M12.7069 36.3895C12.7069 36.2322 12.5853 36.1047 12.4353 36.1047C12.2854 36.1047 12.1638 36.2322 12.1638 36.3895C12.1638 36.5469 12.2854 36.6744 12.4353 36.6744C12.5853 36.6744 12.7069 36.5469 12.7069 36.3895Z"
          fill="#FFE7F5"
        />
        <path
          d="M12.7069 35.1686C12.7069 35.0113 12.5853 34.8837 12.4353 34.8837C12.2854 34.8837 12.1638 35.0113 12.1638 35.1686C12.1638 35.3259 12.2854 35.4535 12.4353 35.4535C12.5853 35.4535 12.7069 35.3259 12.7069 35.1686Z"
          fill="#FFE7F5"
        />
        <path
          d="M12.7069 33.9477C12.7069 33.7903 12.5853 33.6628 12.4353 33.6628C12.2854 33.6628 12.1638 33.7903 12.1638 33.9477C12.1638 34.105 12.2854 34.2326 12.4353 34.2326C12.5853 34.2326 12.7069 34.105 12.7069 33.9477Z"
          fill="#FFE7F5"
        />
        <path
          d="M12.7069 32.7267C12.7069 32.5694 12.5853 32.4419 12.4353 32.4419C12.2854 32.4419 12.1638 32.5694 12.1638 32.7267C12.1638 32.8841 12.2854 33.0116 12.4353 33.0116C12.5853 33.0116 12.7069 32.8841 12.7069 32.7267Z"
          fill="#FFE7F5"
        />
        <path
          d="M12.7069 31.5058C12.7069 31.3485 12.5853 31.2209 12.4353 31.2209C12.2854 31.2209 12.1638 31.3485 12.1638 31.5058C12.1638 31.6632 12.2854 31.7907 12.4353 31.7907C12.5853 31.7907 12.7069 31.6632 12.7069 31.5058Z"
          fill="#FFE7F5"
        />
        <path
          d="M12.7069 30.2849C12.7069 30.1275 12.5853 30 12.4353 30C12.2854 30 12.1638 30.1275 12.1638 30.2849C12.1638 30.4422 12.2854 30.5698 12.4353 30.5698C12.5853 30.5698 12.7069 30.4422 12.7069 30.2849Z"
          fill="#FFE7F5"
        />
        <path
          d="M13.8707 36.3895C13.8707 36.2322 13.7491 36.1047 13.5991 36.1047C13.4492 36.1047 13.3276 36.2322 13.3276 36.3895C13.3276 36.5469 13.4492 36.6744 13.5991 36.6744C13.7491 36.6744 13.8707 36.5469 13.8707 36.3895Z"
          fill="#FFE7F5"
        />
        <path
          d="M13.8707 35.1686C13.8707 35.0113 13.7491 34.8837 13.5991 34.8837C13.4492 34.8837 13.3276 35.0113 13.3276 35.1686C13.3276 35.3259 13.4492 35.4535 13.5991 35.4535C13.7491 35.4535 13.8707 35.3259 13.8707 35.1686Z"
          fill="#FFE7F5"
        />
        <path
          d="M13.8707 33.9477C13.8707 33.7903 13.7491 33.6628 13.5991 33.6628C13.4492 33.6628 13.3276 33.7903 13.3276 33.9477C13.3276 34.105 13.4492 34.2326 13.5991 34.2326C13.7491 34.2326 13.8707 34.105 13.8707 33.9477Z"
          fill="#FFE7F5"
        />
        <path
          d="M13.8707 32.7267C13.8707 32.5694 13.7491 32.4419 13.5991 32.4419C13.4492 32.4419 13.3276 32.5694 13.3276 32.7267C13.3276 32.8841 13.4492 33.0116 13.5991 33.0116C13.7491 33.0116 13.8707 32.8841 13.8707 32.7267Z"
          fill="#FFE7F5"
        />
        <path
          d="M13.8707 31.5058C13.8707 31.3485 13.7491 31.2209 13.5991 31.2209C13.4492 31.2209 13.3276 31.3485 13.3276 31.5058C13.3276 31.6632 13.4492 31.7907 13.5991 31.7907C13.7491 31.7907 13.8707 31.6632 13.8707 31.5058Z"
          fill="#FFE7F5"
        />
        <path
          d="M13.8707 30.2849C13.8707 30.1275 13.7491 30 13.5991 30C13.4492 30 13.3276 30.1275 13.3276 30.2849C13.3276 30.4422 13.4492 30.5698 13.5991 30.5698C13.7491 30.5698 13.8707 30.4422 13.8707 30.2849Z"
          fill="#FFE7F5"
        />
        <path
          d="M15.0345 36.3895C15.0345 36.2322 14.9129 36.1047 14.7629 36.1047C14.613 36.1047 14.4914 36.2322 14.4914 36.3895C14.4914 36.5469 14.613 36.6744 14.7629 36.6744C14.9129 36.6744 15.0345 36.5469 15.0345 36.3895Z"
          fill="#FFE7F5"
        />
        <path
          d="M15.0345 35.1686C15.0345 35.0113 14.9129 34.8837 14.7629 34.8837C14.613 34.8837 14.4914 35.0113 14.4914 35.1686C14.4914 35.3259 14.613 35.4535 14.7629 35.4535C14.9129 35.4535 15.0345 35.3259 15.0345 35.1686Z"
          fill="#FFE7F5"
        />
        <path
          d="M15.0345 33.9477C15.0345 33.7903 14.9129 33.6628 14.7629 33.6628C14.613 33.6628 14.4914 33.7903 14.4914 33.9477C14.4914 34.105 14.613 34.2326 14.7629 34.2326C14.9129 34.2326 15.0345 34.105 15.0345 33.9477Z"
          fill="#FFE7F5"
        />
        <path
          d="M15.0345 32.7267C15.0345 32.5694 14.9129 32.4419 14.7629 32.4419C14.613 32.4419 14.4914 32.5694 14.4914 32.7267C14.4914 32.8841 14.613 33.0116 14.7629 33.0116C14.9129 33.0116 15.0345 32.8841 15.0345 32.7267Z"
          fill="#FFE7F5"
        />
        <path
          d="M15.0345 31.5058C15.0345 31.3485 14.9129 31.2209 14.7629 31.2209C14.613 31.2209 14.4914 31.3485 14.4914 31.5058C14.4914 31.6632 14.613 31.7907 14.7629 31.7907C14.9129 31.7907 15.0345 31.6632 15.0345 31.5058Z"
          fill="#FFE7F5"
        />
        <path
          d="M15.0345 30.2849C15.0345 30.1275 14.9129 30 14.7629 30C14.613 30 14.4914 30.1275 14.4914 30.2849C14.4914 30.4422 14.613 30.5698 14.7629 30.5698C14.9129 30.5698 15.0345 30.4422 15.0345 30.2849Z"
          fill="#FFE7F5"
        />
        <path
          d="M16.1983 36.3895C16.1983 36.2322 16.0767 36.1047 15.9267 36.1047C15.7768 36.1047 15.6552 36.2322 15.6552 36.3895C15.6552 36.5469 15.7768 36.6744 15.9267 36.6744C16.0767 36.6744 16.1983 36.5469 16.1983 36.3895Z"
          fill="#FFE7F5"
        />
        <path
          d="M16.1983 35.1686C16.1983 35.0113 16.0767 34.8837 15.9267 34.8837C15.7768 34.8837 15.6552 35.0113 15.6552 35.1686C15.6552 35.3259 15.7768 35.4535 15.9267 35.4535C16.0767 35.4535 16.1983 35.3259 16.1983 35.1686Z"
          fill="#FFE7F5"
        />
        <path
          d="M16.1983 33.9477C16.1983 33.7903 16.0767 33.6628 15.9267 33.6628C15.7768 33.6628 15.6552 33.7903 15.6552 33.9477C15.6552 34.105 15.7768 34.2326 15.9267 34.2326C16.0767 34.2326 16.1983 34.105 16.1983 33.9477Z"
          fill="#FFE7F5"
        />
        <path
          d="M16.1983 32.7267C16.1983 32.5694 16.0767 32.4419 15.9267 32.4419C15.7768 32.4419 15.6552 32.5694 15.6552 32.7267C15.6552 32.8841 15.7768 33.0116 15.9267 33.0116C16.0767 33.0116 16.1983 32.8841 16.1983 32.7267Z"
          fill="#FFE7F5"
        />
        <path
          d="M16.1983 31.5058C16.1983 31.3485 16.0767 31.2209 15.9267 31.2209C15.7768 31.2209 15.6552 31.3485 15.6552 31.5058C15.6552 31.6632 15.7768 31.7907 15.9267 31.7907C16.0767 31.7907 16.1983 31.6632 16.1983 31.5058Z"
          fill="#FFE7F5"
        />
        <path
          d="M16.1983 30.2849C16.1983 30.1275 16.0767 30 15.9267 30C15.7768 30 15.6552 30.1275 15.6552 30.2849C15.6552 30.4422 15.7768 30.5698 15.9267 30.5698C16.0767 30.5698 16.1983 30.4422 16.1983 30.2849Z"
          fill="#FFE7F5"
        />
        <path
          d="M17.3621 36.3895C17.3621 36.2322 17.2405 36.1047 17.0905 36.1047C16.9405 36.1047 16.819 36.2322 16.819 36.3895C16.819 36.5469 16.9405 36.6744 17.0905 36.6744C17.2405 36.6744 17.3621 36.5469 17.3621 36.3895Z"
          fill="#FFE7F5"
        />
        <path
          d="M17.3621 35.1686C17.3621 35.0113 17.2405 34.8837 17.0905 34.8837C16.9405 34.8837 16.819 35.0113 16.819 35.1686C16.819 35.3259 16.9405 35.4535 17.0905 35.4535C17.2405 35.4535 17.3621 35.3259 17.3621 35.1686Z"
          fill="#FFE7F5"
        />
        <path
          d="M17.3621 33.9477C17.3621 33.7903 17.2405 33.6628 17.0905 33.6628C16.9405 33.6628 16.819 33.7903 16.819 33.9477C16.819 34.105 16.9405 34.2326 17.0905 34.2326C17.2405 34.2326 17.3621 34.105 17.3621 33.9477Z"
          fill="#FFE7F5"
        />
        <path
          d="M17.3621 32.7267C17.3621 32.5694 17.2405 32.4419 17.0905 32.4419C16.9405 32.4419 16.819 32.5694 16.819 32.7267C16.819 32.8841 16.9405 33.0116 17.0905 33.0116C17.2405 33.0116 17.3621 32.8841 17.3621 32.7267Z"
          fill="#FFE7F5"
        />
        <path
          d="M17.3621 31.5058C17.3621 31.3485 17.2405 31.2209 17.0905 31.2209C16.9405 31.2209 16.819 31.3485 16.819 31.5058C16.819 31.6632 16.9405 31.7907 17.0905 31.7907C17.2405 31.7907 17.3621 31.6632 17.3621 31.5058Z"
          fill="#FFE7F5"
        />
        <path
          d="M17.3621 30.2849C17.3621 30.1275 17.2405 30 17.0905 30C16.9405 30 16.819 30.1275 16.819 30.2849C16.819 30.4422 16.9405 30.5698 17.0905 30.5698C17.2405 30.5698 17.3621 30.4422 17.3621 30.2849Z"
          fill="#FFE7F5"
        />
        <path
          d="M18.5259 36.3895C18.5259 36.2322 18.4043 36.1047 18.2543 36.1047C18.1043 36.1047 17.9828 36.2322 17.9828 36.3895C17.9828 36.5469 18.1043 36.6744 18.2543 36.6744C18.4043 36.6744 18.5259 36.5469 18.5259 36.3895Z"
          fill="#FFE7F5"
        />
        <path
          d="M18.5259 35.1686C18.5259 35.0113 18.4043 34.8837 18.2543 34.8837C18.1043 34.8837 17.9828 35.0113 17.9828 35.1686C17.9828 35.3259 18.1043 35.4535 18.2543 35.4535C18.4043 35.4535 18.5259 35.3259 18.5259 35.1686Z"
          fill="#FFE7F5"
        />
        <path
          d="M18.5259 33.9477C18.5259 33.7903 18.4043 33.6628 18.2543 33.6628C18.1043 33.6628 17.9828 33.7903 17.9828 33.9477C17.9828 34.105 18.1043 34.2326 18.2543 34.2326C18.4043 34.2326 18.5259 34.105 18.5259 33.9477Z"
          fill="#FFE7F5"
        />
        <path
          d="M18.5259 32.7267C18.5259 32.5694 18.4043 32.4419 18.2543 32.4419C18.1043 32.4419 17.9828 32.5694 17.9828 32.7267C17.9828 32.8841 18.1043 33.0116 18.2543 33.0116C18.4043 33.0116 18.5259 32.8841 18.5259 32.7267Z"
          fill="#FFE7F5"
        />
        <path
          d="M18.5259 31.5058C18.5259 31.3485 18.4043 31.2209 18.2543 31.2209C18.1043 31.2209 17.9828 31.3485 17.9828 31.5058C17.9828 31.6632 18.1043 31.7907 18.2543 31.7907C18.4043 31.7907 18.5259 31.6632 18.5259 31.5058Z"
          fill="#FFE7F5"
        />
        <path
          d="M18.5259 30.2849C18.5259 30.1275 18.4043 30 18.2543 30C18.1043 30 17.9828 30.1275 17.9828 30.2849C17.9828 30.4422 18.1043 30.5698 18.2543 30.5698C18.4043 30.5698 18.5259 30.4422 18.5259 30.2849Z"
          fill="#FFE7F5"
        />
        <path
          d="M19.6897 36.3895C19.6897 36.2322 19.5681 36.1047 19.4181 36.1047C19.2681 36.1047 19.1466 36.2322 19.1466 36.3895C19.1466 36.5469 19.2681 36.6744 19.4181 36.6744C19.5681 36.6744 19.6897 36.5469 19.6897 36.3895Z"
          fill="#FFE7F5"
        />
        <path
          d="M19.6897 35.1686C19.6897 35.0113 19.5681 34.8837 19.4181 34.8837C19.2681 34.8837 19.1466 35.0113 19.1466 35.1686C19.1466 35.3259 19.2681 35.4535 19.4181 35.4535C19.5681 35.4535 19.6897 35.3259 19.6897 35.1686Z"
          fill="#FFE7F5"
        />
        <path
          d="M19.6897 33.9477C19.6897 33.7903 19.5681 33.6628 19.4181 33.6628C19.2681 33.6628 19.1466 33.7903 19.1466 33.9477C19.1466 34.105 19.2681 34.2326 19.4181 34.2326C19.5681 34.2326 19.6897 34.105 19.6897 33.9477Z"
          fill="#FFE7F5"
        />
        <path
          d="M19.6897 32.7267C19.6897 32.5694 19.5681 32.4419 19.4181 32.4419C19.2681 32.4419 19.1466 32.5694 19.1466 32.7267C19.1466 32.8841 19.2681 33.0116 19.4181 33.0116C19.5681 33.0116 19.6897 32.8841 19.6897 32.7267Z"
          fill="#FFE7F5"
        />
        <path
          d="M19.6897 31.5058C19.6897 31.3485 19.5681 31.2209 19.4181 31.2209C19.2681 31.2209 19.1466 31.3485 19.1466 31.5058C19.1466 31.6632 19.2681 31.7907 19.4181 31.7907C19.5681 31.7907 19.6897 31.6632 19.6897 31.5058Z"
          fill="#FFE7F5"
        />
        <path
          d="M19.6897 30.2849C19.6897 30.1275 19.5681 30 19.4181 30C19.2681 30 19.1466 30.1275 19.1466 30.2849C19.1466 30.4422 19.2681 30.5698 19.4181 30.5698C19.5681 30.5698 19.6897 30.4422 19.6897 30.2849Z"
          fill="#FFE7F5"
        />
        <path
          d="M20.8534 43.7151C20.8534 43.5578 20.7319 43.4302 20.5819 43.4302C20.4319 43.4302 20.3103 43.5578 20.3103 43.7151C20.3103 43.8725 20.4319 44 20.5819 44C20.7319 44 20.8534 43.8725 20.8534 43.7151Z"
          fill="#FFE7F5"
        />
        <path
          d="M20.8534 42.4942C20.8534 42.3368 20.7319 42.2093 20.5819 42.2093C20.4319 42.2093 20.3103 42.3368 20.3103 42.4942C20.3103 42.6515 20.4319 42.7791 20.5819 42.7791C20.7319 42.7791 20.8534 42.6515 20.8534 42.4942Z"
          fill="#FFE7F5"
        />
        <path
          d="M20.8534 41.2733C20.8534 41.1159 20.7319 40.9884 20.5819 40.9884C20.4319 40.9884 20.3103 41.1159 20.3103 41.2733C20.3103 41.4306 20.4319 41.5581 20.5819 41.5581C20.7319 41.5581 20.8534 41.4306 20.8534 41.2733Z"
          fill="#FFE7F5"
        />
        <path
          d="M20.8534 40.0523C20.8534 39.895 20.7319 39.7674 20.5819 39.7674C20.4319 39.7674 20.3103 39.895 20.3103 40.0523C20.3103 40.2097 20.4319 40.3372 20.5819 40.3372C20.7319 40.3372 20.8534 40.2097 20.8534 40.0523Z"
          fill="#FFE7F5"
        />
        <path
          d="M20.8534 38.8314C20.8534 38.6741 20.7319 38.5465 20.5819 38.5465C20.4319 38.5465 20.3103 38.6741 20.3103 38.8314C20.3103 38.9887 20.4319 39.1163 20.5819 39.1163C20.7319 39.1163 20.8534 38.9887 20.8534 38.8314Z"
          fill="#FFE7F5"
        />
        <path
          d="M20.8534 37.6105C20.8534 37.4531 20.7319 37.3256 20.5819 37.3256C20.4319 37.3256 20.3103 37.4531 20.3103 37.6105C20.3103 37.7678 20.4319 37.8953 20.5819 37.8953C20.7319 37.8953 20.8534 37.7678 20.8534 37.6105Z"
          fill="#FFE7F5"
        />
        <path
          d="M22.0172 43.7151C22.0172 43.5578 21.8957 43.4302 21.7457 43.4302C21.5957 43.4302 21.4741 43.5578 21.4741 43.7151C21.4741 43.8725 21.5957 44 21.7457 44C21.8957 44 22.0172 43.8725 22.0172 43.7151Z"
          fill="#FFE7F5"
        />
        <path
          d="M22.0172 42.4942C22.0172 42.3368 21.8957 42.2093 21.7457 42.2093C21.5957 42.2093 21.4741 42.3368 21.4741 42.4942C21.4741 42.6515 21.5957 42.7791 21.7457 42.7791C21.8957 42.7791 22.0172 42.6515 22.0172 42.4942Z"
          fill="#FFE7F5"
        />
        <path
          d="M22.0172 41.2733C22.0172 41.1159 21.8957 40.9884 21.7457 40.9884C21.5957 40.9884 21.4741 41.1159 21.4741 41.2733C21.4741 41.4306 21.5957 41.5581 21.7457 41.5581C21.8957 41.5581 22.0172 41.4306 22.0172 41.2733Z"
          fill="#FFE7F5"
        />
        <path
          d="M22.0172 40.0523C22.0172 39.895 21.8957 39.7674 21.7457 39.7674C21.5957 39.7674 21.4741 39.895 21.4741 40.0523C21.4741 40.2097 21.5957 40.3372 21.7457 40.3372C21.8957 40.3372 22.0172 40.2097 22.0172 40.0523Z"
          fill="#FFE7F5"
        />
        <path
          d="M22.0172 38.8314C22.0172 38.6741 21.8957 38.5465 21.7457 38.5465C21.5957 38.5465 21.4741 38.6741 21.4741 38.8314C21.4741 38.9887 21.5957 39.1163 21.7457 39.1163C21.8957 39.1163 22.0172 38.9887 22.0172 38.8314Z"
          fill="#FFE7F5"
        />
        <path
          d="M22.0172 37.6105C22.0172 37.4531 21.8957 37.3256 21.7457 37.3256C21.5957 37.3256 21.4741 37.4531 21.4741 37.6105C21.4741 37.7678 21.5957 37.8953 21.7457 37.8953C21.8957 37.8953 22.0172 37.7678 22.0172 37.6105Z"
          fill="#FFE7F5"
        />
        <path
          d="M23.181 43.7151C23.181 43.5578 23.0595 43.4302 22.9095 43.4302C22.7595 43.4302 22.6379 43.5578 22.6379 43.7151C22.6379 43.8725 22.7595 44 22.9095 44C23.0595 44 23.181 43.8725 23.181 43.7151Z"
          fill="#FFE7F5"
        />
        <path
          d="M23.181 42.4942C23.181 42.3368 23.0595 42.2093 22.9095 42.2093C22.7595 42.2093 22.6379 42.3368 22.6379 42.4942C22.6379 42.6515 22.7595 42.7791 22.9095 42.7791C23.0595 42.7791 23.181 42.6515 23.181 42.4942Z"
          fill="#FFE7F5"
        />
        <path
          d="M23.181 41.2733C23.181 41.1159 23.0595 40.9884 22.9095 40.9884C22.7595 40.9884 22.6379 41.1159 22.6379 41.2733C22.6379 41.4306 22.7595 41.5581 22.9095 41.5581C23.0595 41.5581 23.181 41.4306 23.181 41.2733Z"
          fill="#FFE7F5"
        />
        <path
          d="M23.181 40.0523C23.181 39.895 23.0595 39.7674 22.9095 39.7674C22.7595 39.7674 22.6379 39.895 22.6379 40.0523C22.6379 40.2097 22.7595 40.3372 22.9095 40.3372C23.0595 40.3372 23.181 40.2097 23.181 40.0523Z"
          fill="#FFE7F5"
        />
        <path
          d="M23.181 38.8314C23.181 38.6741 23.0595 38.5465 22.9095 38.5465C22.7595 38.5465 22.6379 38.6741 22.6379 38.8314C22.6379 38.9887 22.7595 39.1163 22.9095 39.1163C23.0595 39.1163 23.181 38.9887 23.181 38.8314Z"
          fill="#FFE7F5"
        />
        <path
          d="M23.181 37.6105C23.181 37.4531 23.0595 37.3256 22.9095 37.3256C22.7595 37.3256 22.6379 37.4531 22.6379 37.6105C22.6379 37.7678 22.7595 37.8953 22.9095 37.8953C23.0595 37.8953 23.181 37.7678 23.181 37.6105Z"
          fill="#FFE7F5"
        />
        <path
          d="M24.3448 43.7151C24.3448 43.5578 24.2232 43.4302 24.0733 43.4302C23.9233 43.4302 23.8017 43.5578 23.8017 43.7151C23.8017 43.8725 23.9233 44 24.0733 44C24.2232 44 24.3448 43.8725 24.3448 43.7151Z"
          fill="#FFE7F5"
        />
        <path
          d="M24.3448 42.4942C24.3448 42.3368 24.2232 42.2093 24.0733 42.2093C23.9233 42.2093 23.8017 42.3368 23.8017 42.4942C23.8017 42.6515 23.9233 42.7791 24.0733 42.7791C24.2232 42.7791 24.3448 42.6515 24.3448 42.4942Z"
          fill="#FFE7F5"
        />
        <path
          d="M24.3448 41.2733C24.3448 41.1159 24.2232 40.9884 24.0733 40.9884C23.9233 40.9884 23.8017 41.1159 23.8017 41.2733C23.8017 41.4306 23.9233 41.5581 24.0733 41.5581C24.2232 41.5581 24.3448 41.4306 24.3448 41.2733Z"
          fill="#FFE7F5"
        />
        <path
          d="M24.3448 40.0523C24.3448 39.895 24.2232 39.7674 24.0733 39.7674C23.9233 39.7674 23.8017 39.895 23.8017 40.0523C23.8017 40.2097 23.9233 40.3372 24.0733 40.3372C24.2232 40.3372 24.3448 40.2097 24.3448 40.0523Z"
          fill="#FFE7F5"
        />
        <path
          d="M24.3448 38.8314C24.3448 38.6741 24.2232 38.5465 24.0733 38.5465C23.9233 38.5465 23.8017 38.6741 23.8017 38.8314C23.8017 38.9887 23.9233 39.1163 24.0733 39.1163C24.2232 39.1163 24.3448 38.9887 24.3448 38.8314Z"
          fill="#FFE7F5"
        />
        <path
          d="M24.3448 37.6105C24.3448 37.4531 24.2232 37.3256 24.0733 37.3256C23.9233 37.3256 23.8017 37.4531 23.8017 37.6105C23.8017 37.7678 23.9233 37.8953 24.0733 37.8953C24.2232 37.8953 24.3448 37.7678 24.3448 37.6105Z"
          fill="#FFE7F5"
        />
        <path
          d="M25.5086 43.7151C25.5086 43.5578 25.387 43.4302 25.2371 43.4302C25.0871 43.4302 24.9655 43.5578 24.9655 43.7151C24.9655 43.8725 25.0871 44 25.2371 44C25.387 44 25.5086 43.8725 25.5086 43.7151Z"
          fill="#FFE7F5"
        />
        <path
          d="M25.5086 42.4942C25.5086 42.3368 25.387 42.2093 25.2371 42.2093C25.0871 42.2093 24.9655 42.3368 24.9655 42.4942C24.9655 42.6515 25.0871 42.7791 25.2371 42.7791C25.387 42.7791 25.5086 42.6515 25.5086 42.4942Z"
          fill="#FFE7F5"
        />
        <path
          d="M25.5086 41.2733C25.5086 41.1159 25.387 40.9884 25.2371 40.9884C25.0871 40.9884 24.9655 41.1159 24.9655 41.2733C24.9655 41.4306 25.0871 41.5581 25.2371 41.5581C25.387 41.5581 25.5086 41.4306 25.5086 41.2733Z"
          fill="#FFE7F5"
        />
        <path
          d="M25.5086 40.0523C25.5086 39.895 25.387 39.7674 25.2371 39.7674C25.0871 39.7674 24.9655 39.895 24.9655 40.0523C24.9655 40.2097 25.0871 40.3372 25.2371 40.3372C25.387 40.3372 25.5086 40.2097 25.5086 40.0523Z"
          fill="#FFE7F5"
        />
        <path
          d="M25.5086 38.8314C25.5086 38.6741 25.387 38.5465 25.2371 38.5465C25.0871 38.5465 24.9655 38.6741 24.9655 38.8314C24.9655 38.9887 25.0871 39.1163 25.2371 39.1163C25.387 39.1163 25.5086 38.9887 25.5086 38.8314Z"
          fill="#FFE7F5"
        />
        <path
          d="M25.5086 37.6105C25.5086 37.4531 25.387 37.3256 25.2371 37.3256C25.0871 37.3256 24.9655 37.4531 24.9655 37.6105C24.9655 37.7678 25.0871 37.8953 25.2371 37.8953C25.387 37.8953 25.5086 37.7678 25.5086 37.6105Z"
          fill="#FFE7F5"
        />
        <path
          d="M26.6724 43.7151C26.6724 43.5578 26.5508 43.4302 26.4009 43.4302C26.2509 43.4302 26.1293 43.5578 26.1293 43.7151C26.1293 43.8725 26.2509 44 26.4009 44C26.5508 44 26.6724 43.8725 26.6724 43.7151Z"
          fill="#FFE7F5"
        />
        <path
          d="M26.6724 42.4942C26.6724 42.3368 26.5508 42.2093 26.4009 42.2093C26.2509 42.2093 26.1293 42.3368 26.1293 42.4942C26.1293 42.6515 26.2509 42.7791 26.4009 42.7791C26.5508 42.7791 26.6724 42.6515 26.6724 42.4942Z"
          fill="#FFE7F5"
        />
        <path
          d="M26.6724 41.2733C26.6724 41.1159 26.5508 40.9884 26.4009 40.9884C26.2509 40.9884 26.1293 41.1159 26.1293 41.2733C26.1293 41.4306 26.2509 41.5581 26.4009 41.5581C26.5508 41.5581 26.6724 41.4306 26.6724 41.2733Z"
          fill="#FFE7F5"
        />
        <path
          d="M26.6724 40.0523C26.6724 39.895 26.5508 39.7674 26.4009 39.7674C26.2509 39.7674 26.1293 39.895 26.1293 40.0523C26.1293 40.2097 26.2509 40.3372 26.4009 40.3372C26.5508 40.3372 26.6724 40.2097 26.6724 40.0523Z"
          fill="#FFE7F5"
        />
        <path
          d="M26.6724 38.8314C26.6724 38.6741 26.5508 38.5465 26.4009 38.5465C26.2509 38.5465 26.1293 38.6741 26.1293 38.8314C26.1293 38.9887 26.2509 39.1163 26.4009 39.1163C26.5508 39.1163 26.6724 38.9887 26.6724 38.8314Z"
          fill="#FFE7F5"
        />
        <path
          d="M26.6724 37.6105C26.6724 37.4531 26.5508 37.3256 26.4009 37.3256C26.2509 37.3256 26.1293 37.4531 26.1293 37.6105C26.1293 37.7678 26.2509 37.8953 26.4009 37.8953C26.5508 37.8953 26.6724 37.7678 26.6724 37.6105Z"
          fill="#FFE7F5"
        />
        <path
          d="M27.8362 43.7151C27.8362 43.5578 27.7146 43.4302 27.5647 43.4302C27.4147 43.4302 27.2931 43.5578 27.2931 43.7151C27.2931 43.8725 27.4147 44 27.5647 44C27.7146 44 27.8362 43.8725 27.8362 43.7151Z"
          fill="#FFE7F5"
        />
        <path
          d="M27.8362 42.4942C27.8362 42.3368 27.7146 42.2093 27.5647 42.2093C27.4147 42.2093 27.2931 42.3368 27.2931 42.4942C27.2931 42.6515 27.4147 42.7791 27.5647 42.7791C27.7146 42.7791 27.8362 42.6515 27.8362 42.4942Z"
          fill="#FFE7F5"
        />
        <path
          d="M27.8362 41.2733C27.8362 41.1159 27.7146 40.9884 27.5647 40.9884C27.4147 40.9884 27.2931 41.1159 27.2931 41.2733C27.2931 41.4306 27.4147 41.5581 27.5647 41.5581C27.7146 41.5581 27.8362 41.4306 27.8362 41.2733Z"
          fill="#FFE7F5"
        />
        <path
          d="M27.8362 40.0523C27.8362 39.895 27.7146 39.7674 27.5647 39.7674C27.4147 39.7674 27.2931 39.895 27.2931 40.0523C27.2931 40.2097 27.4147 40.3372 27.5647 40.3372C27.7146 40.3372 27.8362 40.2097 27.8362 40.0523Z"
          fill="#FFE7F5"
        />
        <path
          d="M27.8362 38.8314C27.8362 38.6741 27.7146 38.5465 27.5647 38.5465C27.4147 38.5465 27.2931 38.6741 27.2931 38.8314C27.2931 38.9887 27.4147 39.1163 27.5647 39.1163C27.7146 39.1163 27.8362 38.9887 27.8362 38.8314Z"
          fill="#FFE7F5"
        />
        <path
          d="M27.8362 37.6105C27.8362 37.4531 27.7146 37.3256 27.5647 37.3256C27.4147 37.3256 27.2931 37.4531 27.2931 37.6105C27.2931 37.7678 27.4147 37.8953 27.5647 37.8953C27.7146 37.8953 27.8362 37.7678 27.8362 37.6105Z"
          fill="#FFE7F5"
        />
        <path
          d="M29 43.7151C29 43.5578 28.8784 43.4302 28.7284 43.4302C28.5785 43.4302 28.4569 43.5578 28.4569 43.7151C28.4569 43.8725 28.5785 44 28.7284 44C28.8784 44 29 43.8725 29 43.7151Z"
          fill="#FFE7F5"
        />
        <path
          d="M29 42.4942C29 42.3368 28.8784 42.2093 28.7284 42.2093C28.5785 42.2093 28.4569 42.3368 28.4569 42.4942C28.4569 42.6515 28.5785 42.7791 28.7284 42.7791C28.8784 42.7791 29 42.6515 29 42.4942Z"
          fill="#FFE7F5"
        />
        <path
          d="M29 41.2733C29 41.1159 28.8784 40.9884 28.7284 40.9884C28.5785 40.9884 28.4569 41.1159 28.4569 41.2733C28.4569 41.4306 28.5785 41.5581 28.7284 41.5581C28.8784 41.5581 29 41.4306 29 41.2733Z"
          fill="#FFE7F5"
        />
        <path
          d="M29 40.0523C29 39.895 28.8784 39.7674 28.7284 39.7674C28.5785 39.7674 28.4569 39.895 28.4569 40.0523C28.4569 40.2097 28.5785 40.3372 28.7284 40.3372C28.8784 40.3372 29 40.2097 29 40.0523Z"
          fill="#FFE7F5"
        />
        <path
          d="M29 38.8314C29 38.6741 28.8784 38.5465 28.7284 38.5465C28.5785 38.5465 28.4569 38.6741 28.4569 38.8314C28.4569 38.9887 28.5785 39.1163 28.7284 39.1163C28.8784 39.1163 29 38.9887 29 38.8314Z"
          fill="#FFE7F5"
        />
        <path
          d="M29 37.6105C29 37.4531 28.8784 37.3256 28.7284 37.3256C28.5785 37.3256 28.4569 37.4531 28.4569 37.6105C28.4569 37.7678 28.5785 37.8953 28.7284 37.8953C28.8784 37.8953 29 37.7678 29 37.6105Z"
          fill="#FFE7F5"
        />
        <path
          d="M20.8534 36.3895C20.8534 36.2322 20.7319 36.1047 20.5819 36.1047C20.4319 36.1047 20.3103 36.2322 20.3103 36.3895C20.3103 36.5469 20.4319 36.6744 20.5819 36.6744C20.7319 36.6744 20.8534 36.5469 20.8534 36.3895Z"
          fill="#FFE7F5"
        />
        <path
          d="M20.8534 35.1686C20.8534 35.0113 20.7319 34.8837 20.5819 34.8837C20.4319 34.8837 20.3103 35.0113 20.3103 35.1686C20.3103 35.3259 20.4319 35.4535 20.5819 35.4535C20.7319 35.4535 20.8534 35.3259 20.8534 35.1686Z"
          fill="#FFE7F5"
        />
        <path
          d="M20.8534 33.9477C20.8534 33.7903 20.7319 33.6628 20.5819 33.6628C20.4319 33.6628 20.3103 33.7903 20.3103 33.9477C20.3103 34.105 20.4319 34.2326 20.5819 34.2326C20.7319 34.2326 20.8534 34.105 20.8534 33.9477Z"
          fill="#FFE7F5"
        />
        <path
          d="M20.8534 32.7267C20.8534 32.5694 20.7319 32.4419 20.5819 32.4419C20.4319 32.4419 20.3103 32.5694 20.3103 32.7267C20.3103 32.8841 20.4319 33.0116 20.5819 33.0116C20.7319 33.0116 20.8534 32.8841 20.8534 32.7267Z"
          fill="#FFE7F5"
        />
        <path
          d="M20.8534 31.5058C20.8534 31.3485 20.7319 31.2209 20.5819 31.2209C20.4319 31.2209 20.3103 31.3485 20.3103 31.5058C20.3103 31.6632 20.4319 31.7907 20.5819 31.7907C20.7319 31.7907 20.8534 31.6632 20.8534 31.5058Z"
          fill="#FFE7F5"
        />
        <path
          d="M20.8534 30.2849C20.8534 30.1275 20.7319 30 20.5819 30C20.4319 30 20.3103 30.1275 20.3103 30.2849C20.3103 30.4422 20.4319 30.5698 20.5819 30.5698C20.7319 30.5698 20.8534 30.4422 20.8534 30.2849Z"
          fill="#FFE7F5"
        />
        <path
          d="M22.0172 36.3895C22.0172 36.2322 21.8957 36.1047 21.7457 36.1047C21.5957 36.1047 21.4741 36.2322 21.4741 36.3895C21.4741 36.5469 21.5957 36.6744 21.7457 36.6744C21.8957 36.6744 22.0172 36.5469 22.0172 36.3895Z"
          fill="#FFE7F5"
        />
        <path
          d="M22.0172 35.1686C22.0172 35.0113 21.8957 34.8837 21.7457 34.8837C21.5957 34.8837 21.4741 35.0113 21.4741 35.1686C21.4741 35.3259 21.5957 35.4535 21.7457 35.4535C21.8957 35.4535 22.0172 35.3259 22.0172 35.1686Z"
          fill="#FFE7F5"
        />
        <path
          d="M22.0172 33.9477C22.0172 33.7903 21.8957 33.6628 21.7457 33.6628C21.5957 33.6628 21.4741 33.7903 21.4741 33.9477C21.4741 34.105 21.5957 34.2326 21.7457 34.2326C21.8957 34.2326 22.0172 34.105 22.0172 33.9477Z"
          fill="#FFE7F5"
        />
        <path
          d="M22.0172 32.7267C22.0172 32.5694 21.8957 32.4419 21.7457 32.4419C21.5957 32.4419 21.4741 32.5694 21.4741 32.7267C21.4741 32.8841 21.5957 33.0116 21.7457 33.0116C21.8957 33.0116 22.0172 32.8841 22.0172 32.7267Z"
          fill="#FFE7F5"
        />
        <path
          d="M22.0172 31.5058C22.0172 31.3485 21.8957 31.2209 21.7457 31.2209C21.5957 31.2209 21.4741 31.3485 21.4741 31.5058C21.4741 31.6632 21.5957 31.7907 21.7457 31.7907C21.8957 31.7907 22.0172 31.6632 22.0172 31.5058Z"
          fill="#FFE7F5"
        />
        <path
          d="M22.0172 30.2849C22.0172 30.1275 21.8957 30 21.7457 30C21.5957 30 21.4741 30.1275 21.4741 30.2849C21.4741 30.4422 21.5957 30.5698 21.7457 30.5698C21.8957 30.5698 22.0172 30.4422 22.0172 30.2849Z"
          fill="#FFE7F5"
        />
        <path
          d="M23.181 36.3895C23.181 36.2322 23.0595 36.1047 22.9095 36.1047C22.7595 36.1047 22.6379 36.2322 22.6379 36.3895C22.6379 36.5469 22.7595 36.6744 22.9095 36.6744C23.0595 36.6744 23.181 36.5469 23.181 36.3895Z"
          fill="#FFE7F5"
        />
        <path
          d="M23.181 35.1686C23.181 35.0113 23.0595 34.8837 22.9095 34.8837C22.7595 34.8837 22.6379 35.0113 22.6379 35.1686C22.6379 35.3259 22.7595 35.4535 22.9095 35.4535C23.0595 35.4535 23.181 35.3259 23.181 35.1686Z"
          fill="#FFE7F5"
        />
        <path
          d="M23.181 33.9477C23.181 33.7903 23.0595 33.6628 22.9095 33.6628C22.7595 33.6628 22.6379 33.7903 22.6379 33.9477C22.6379 34.105 22.7595 34.2326 22.9095 34.2326C23.0595 34.2326 23.181 34.105 23.181 33.9477Z"
          fill="#FFE7F5"
        />
        <path
          d="M23.181 32.7267C23.181 32.5694 23.0595 32.4419 22.9095 32.4419C22.7595 32.4419 22.6379 32.5694 22.6379 32.7267C22.6379 32.8841 22.7595 33.0116 22.9095 33.0116C23.0595 33.0116 23.181 32.8841 23.181 32.7267Z"
          fill="#FFE7F5"
        />
        <path
          d="M23.181 31.5058C23.181 31.3485 23.0595 31.2209 22.9095 31.2209C22.7595 31.2209 22.6379 31.3485 22.6379 31.5058C22.6379 31.6632 22.7595 31.7907 22.9095 31.7907C23.0595 31.7907 23.181 31.6632 23.181 31.5058Z"
          fill="#FFE7F5"
        />
        <path
          d="M23.181 30.2849C23.181 30.1275 23.0595 30 22.9095 30C22.7595 30 22.6379 30.1275 22.6379 30.2849C22.6379 30.4422 22.7595 30.5698 22.9095 30.5698C23.0595 30.5698 23.181 30.4422 23.181 30.2849Z"
          fill="#FFE7F5"
        />
        <path
          d="M24.3448 36.3895C24.3448 36.2322 24.2232 36.1047 24.0733 36.1047C23.9233 36.1047 23.8017 36.2322 23.8017 36.3895C23.8017 36.5469 23.9233 36.6744 24.0733 36.6744C24.2232 36.6744 24.3448 36.5469 24.3448 36.3895Z"
          fill="#FFE7F5"
        />
        <path
          d="M24.3448 35.1686C24.3448 35.0113 24.2232 34.8837 24.0733 34.8837C23.9233 34.8837 23.8017 35.0113 23.8017 35.1686C23.8017 35.3259 23.9233 35.4535 24.0733 35.4535C24.2232 35.4535 24.3448 35.3259 24.3448 35.1686Z"
          fill="#FFE7F5"
        />
        <path
          d="M24.3448 33.9477C24.3448 33.7903 24.2232 33.6628 24.0733 33.6628C23.9233 33.6628 23.8017 33.7903 23.8017 33.9477C23.8017 34.105 23.9233 34.2326 24.0733 34.2326C24.2232 34.2326 24.3448 34.105 24.3448 33.9477Z"
          fill="#FFE7F5"
        />
        <path
          d="M24.3448 32.7267C24.3448 32.5694 24.2232 32.4419 24.0733 32.4419C23.9233 32.4419 23.8017 32.5694 23.8017 32.7267C23.8017 32.8841 23.9233 33.0116 24.0733 33.0116C24.2232 33.0116 24.3448 32.8841 24.3448 32.7267Z"
          fill="#FFE7F5"
        />
        <path
          d="M24.3448 31.5058C24.3448 31.3485 24.2232 31.2209 24.0733 31.2209C23.9233 31.2209 23.8017 31.3485 23.8017 31.5058C23.8017 31.6632 23.9233 31.7907 24.0733 31.7907C24.2232 31.7907 24.3448 31.6632 24.3448 31.5058Z"
          fill="#FFE7F5"
        />
        <path
          d="M24.3448 30.2849C24.3448 30.1275 24.2232 30 24.0733 30C23.9233 30 23.8017 30.1275 23.8017 30.2849C23.8017 30.4422 23.9233 30.5698 24.0733 30.5698C24.2232 30.5698 24.3448 30.4422 24.3448 30.2849Z"
          fill="#FFE7F5"
        />
        <path
          d="M25.5086 36.3895C25.5086 36.2322 25.387 36.1047 25.2371 36.1047C25.0871 36.1047 24.9655 36.2322 24.9655 36.3895C24.9655 36.5469 25.0871 36.6744 25.2371 36.6744C25.387 36.6744 25.5086 36.5469 25.5086 36.3895Z"
          fill="#FFE7F5"
        />
        <path
          d="M25.5086 35.1686C25.5086 35.0113 25.387 34.8837 25.2371 34.8837C25.0871 34.8837 24.9655 35.0113 24.9655 35.1686C24.9655 35.3259 25.0871 35.4535 25.2371 35.4535C25.387 35.4535 25.5086 35.3259 25.5086 35.1686Z"
          fill="#FFE7F5"
        />
        <path
          d="M25.5086 33.9477C25.5086 33.7903 25.387 33.6628 25.2371 33.6628C25.0871 33.6628 24.9655 33.7903 24.9655 33.9477C24.9655 34.105 25.0871 34.2326 25.2371 34.2326C25.387 34.2326 25.5086 34.105 25.5086 33.9477Z"
          fill="#FFE7F5"
        />
        <path
          d="M25.5086 32.7267C25.5086 32.5694 25.387 32.4419 25.2371 32.4419C25.0871 32.4419 24.9655 32.5694 24.9655 32.7267C24.9655 32.8841 25.0871 33.0116 25.2371 33.0116C25.387 33.0116 25.5086 32.8841 25.5086 32.7267Z"
          fill="#FFE7F5"
        />
        <path
          d="M25.5086 31.5058C25.5086 31.3485 25.387 31.2209 25.2371 31.2209C25.0871 31.2209 24.9655 31.3485 24.9655 31.5058C24.9655 31.6632 25.0871 31.7907 25.2371 31.7907C25.387 31.7907 25.5086 31.6632 25.5086 31.5058Z"
          fill="#FFE7F5"
        />
        <path
          d="M25.5086 30.2849C25.5086 30.1275 25.387 30 25.2371 30C25.0871 30 24.9655 30.1275 24.9655 30.2849C24.9655 30.4422 25.0871 30.5698 25.2371 30.5698C25.387 30.5698 25.5086 30.4422 25.5086 30.2849Z"
          fill="#FFE7F5"
        />
        <path
          d="M26.6724 36.3895C26.6724 36.2322 26.5508 36.1047 26.4009 36.1047C26.2509 36.1047 26.1293 36.2322 26.1293 36.3895C26.1293 36.5469 26.2509 36.6744 26.4009 36.6744C26.5508 36.6744 26.6724 36.5469 26.6724 36.3895Z"
          fill="#FFE7F5"
        />
        <path
          d="M26.6724 35.1686C26.6724 35.0113 26.5508 34.8837 26.4009 34.8837C26.2509 34.8837 26.1293 35.0113 26.1293 35.1686C26.1293 35.3259 26.2509 35.4535 26.4009 35.4535C26.5508 35.4535 26.6724 35.3259 26.6724 35.1686Z"
          fill="#FFE7F5"
        />
        <path
          d="M26.6724 33.9477C26.6724 33.7903 26.5508 33.6628 26.4009 33.6628C26.2509 33.6628 26.1293 33.7903 26.1293 33.9477C26.1293 34.105 26.2509 34.2326 26.4009 34.2326C26.5508 34.2326 26.6724 34.105 26.6724 33.9477Z"
          fill="#FFE7F5"
        />
        <path
          d="M26.6724 32.7267C26.6724 32.5694 26.5508 32.4419 26.4009 32.4419C26.2509 32.4419 26.1293 32.5694 26.1293 32.7267C26.1293 32.8841 26.2509 33.0116 26.4009 33.0116C26.5508 33.0116 26.6724 32.8841 26.6724 32.7267Z"
          fill="#FFE7F5"
        />
        <path
          d="M26.6724 31.5058C26.6724 31.3485 26.5508 31.2209 26.4009 31.2209C26.2509 31.2209 26.1293 31.3485 26.1293 31.5058C26.1293 31.6632 26.2509 31.7907 26.4009 31.7907C26.5508 31.7907 26.6724 31.6632 26.6724 31.5058Z"
          fill="#FFE7F5"
        />
        <path
          d="M26.6724 30.2849C26.6724 30.1275 26.5508 30 26.4009 30C26.2509 30 26.1293 30.1275 26.1293 30.2849C26.1293 30.4422 26.2509 30.5698 26.4009 30.5698C26.5508 30.5698 26.6724 30.4422 26.6724 30.2849Z"
          fill="#FFE7F5"
        />
        <path
          d="M27.8362 36.3895C27.8362 36.2322 27.7146 36.1047 27.5647 36.1047C27.4147 36.1047 27.2931 36.2322 27.2931 36.3895C27.2931 36.5469 27.4147 36.6744 27.5647 36.6744C27.7146 36.6744 27.8362 36.5469 27.8362 36.3895Z"
          fill="#FFE7F5"
        />
        <path
          d="M27.8362 35.1686C27.8362 35.0113 27.7146 34.8837 27.5647 34.8837C27.4147 34.8837 27.2931 35.0113 27.2931 35.1686C27.2931 35.3259 27.4147 35.4535 27.5647 35.4535C27.7146 35.4535 27.8362 35.3259 27.8362 35.1686Z"
          fill="#FFE7F5"
        />
        <path
          d="M27.8362 33.9477C27.8362 33.7903 27.7146 33.6628 27.5647 33.6628C27.4147 33.6628 27.2931 33.7903 27.2931 33.9477C27.2931 34.105 27.4147 34.2326 27.5647 34.2326C27.7146 34.2326 27.8362 34.105 27.8362 33.9477Z"
          fill="#FFE7F5"
        />
        <path
          d="M27.8362 32.7267C27.8362 32.5694 27.7146 32.4419 27.5647 32.4419C27.4147 32.4419 27.2931 32.5694 27.2931 32.7267C27.2931 32.8841 27.4147 33.0116 27.5647 33.0116C27.7146 33.0116 27.8362 32.8841 27.8362 32.7267Z"
          fill="#FFE7F5"
        />
        <path
          d="M27.8362 31.5058C27.8362 31.3485 27.7146 31.2209 27.5647 31.2209C27.4147 31.2209 27.2931 31.3485 27.2931 31.5058C27.2931 31.6632 27.4147 31.7907 27.5647 31.7907C27.7146 31.7907 27.8362 31.6632 27.8362 31.5058Z"
          fill="#FFE7F5"
        />
        <path
          d="M27.8362 30.2849C27.8362 30.1275 27.7146 30 27.5647 30C27.4147 30 27.2931 30.1275 27.2931 30.2849C27.2931 30.4422 27.4147 30.5698 27.5647 30.5698C27.7146 30.5698 27.8362 30.4422 27.8362 30.2849Z"
          fill="#FFE7F5"
        />
        <path
          d="M29 36.3895C29 36.2322 28.8784 36.1047 28.7284 36.1047C28.5785 36.1047 28.4569 36.2322 28.4569 36.3895C28.4569 36.5469 28.5785 36.6744 28.7284 36.6744C28.8784 36.6744 29 36.5469 29 36.3895Z"
          fill="#FFE7F5"
        />
        <path
          d="M29 35.1686C29 35.0113 28.8784 34.8837 28.7284 34.8837C28.5785 34.8837 28.4569 35.0113 28.4569 35.1686C28.4569 35.3259 28.5785 35.4535 28.7284 35.4535C28.8784 35.4535 29 35.3259 29 35.1686Z"
          fill="#FFE7F5"
        />
        <path
          d="M29 33.9477C29 33.7903 28.8784 33.6628 28.7284 33.6628C28.5785 33.6628 28.4569 33.7903 28.4569 33.9477C28.4569 34.105 28.5785 34.2326 28.7284 34.2326C28.8784 34.2326 29 34.105 29 33.9477Z"
          fill="#FFE7F5"
        />
        <path
          d="M29 32.7267C29 32.5694 28.8784 32.4419 28.7284 32.4419C28.5785 32.4419 28.4569 32.5694 28.4569 32.7267C28.4569 32.8841 28.5785 33.0116 28.7284 33.0116C28.8784 33.0116 29 32.8841 29 32.7267Z"
          fill="#FFE7F5"
        />
        <path
          d="M29 31.5058C29 31.3485 28.8784 31.2209 28.7284 31.2209C28.5785 31.2209 28.4569 31.3485 28.4569 31.5058C28.4569 31.6632 28.5785 31.7907 28.7284 31.7907C28.8784 31.7907 29 31.6632 29 31.5058Z"
          fill="#FFE7F5"
        />
        <path
          d="M29 30.2849C29 30.1275 28.8784 30 28.7284 30C28.5785 30 28.4569 30.1275 28.4569 30.2849C28.4569 30.4422 28.5785 30.5698 28.7284 30.5698C28.8784 30.5698 29 30.4422 29 30.2849Z"
          fill="#FFE7F5"
        />
      </g>
    </g>
    <path
      d="M15.9243 22.8957C16.2346 24.6414 16.1491 28.2152 13.325 28.5444L13.3063 33.6367L19.8201 36.6529L19.8196 36.7726L19.9504 36.7132L20.0806 36.7735L20.0811 36.6538L26.6168 33.6855L26.6355 28.5931C23.8138 28.2433 23.7546 24.669 24.0776 22.9256L15.9243 22.8957Z"
      fill="url(#paint1_linear)"
    />
    <path
      d="M19.9862 26.4471C20.0766 26.4526 20.1681 26.4418 20.2609 26.4422C25.8611 25.7614 26.4209 18.1438 26.6865 14.1906C26.7147 6.47136 21.3507 5.19773 20.0634 5.38914C18.7775 5.1883 13.4043 6.42259 13.376 14.1418C13.6125 18.0968 14.9504 25.8674 19.7115 26.4402C19.8043 26.4405 19.8958 26.4519 19.9862 26.4471Z"
      fill="#FFC7B9"
    />
    <path
      d="M13.3228 28.4034C11.0597 28.7251 6.53159 29.8778 6.52409 31.9148L6.50014 38.4216L33.3821 38.5205L33.4061 32.0137C33.4136 29.9767 28.894 28.7907 26.6333 28.4524C24.9957 31.75 21.59 31.9602 19.9651 31.9638C18.3402 31.9483 14.9361 31.713 13.3228 28.4034Z"
      fill="#723FA5"
    />
    <path
      d="M25.636 10.7971C21.7026 11.9143 18.2222 10.2984 16.9737 9.35078C15.6974 10.7292 14.8001 11.1765 14.222 11.2268L14.2041 16.0991L13.628 15.6254C12.9401 14.1141 12.6788 11.8498 12.6347 10.7494C12.4013 8.75773 13.639 4.78056 20.4574 4.80554C24.5727 4.82062 27.6249 7.80237 27.2246 10.2056C27.0869 12.1855 26.9401 14.2411 26.6294 15.6731L25.617 15.9837L25.636 10.7971Z"
      fill="#1F2765"
    />
    <path
      d="M13.3267 28.4801C11.0637 28.8013 6.53586 29.953 6.52886 31.99L6.50648 38.4968L33.3884 38.6018L33.4108 32.095C33.4178 30.058 28.898 28.871 26.6372 28.5321C25.0004 31.8294 21.5948 32.0389 19.9698 32.0421C18.345 32.0262 14.9408 31.7901 13.3267 28.4801Z"
      fill="#83A0C4"
    />
    <mask
      id="mask3"
      style="mask-type:alpha"
      maskUnits="userSpaceOnUse"
      x="6"
      y="28"
      width="28"
      height="11"
    >
      <path
        d="M13.3267 28.4801C11.0637 28.8013 6.53586 29.953 6.52886 31.99L6.50648 38.4968L33.3884 38.6018L33.4108 32.095C33.4178 30.058 28.898 28.871 26.6372 28.5321C25.0004 31.8294 21.5948 32.0389 19.9698 32.0421C18.345 32.0262 14.9408 31.7901 13.3267 28.4801Z"
        fill="#723FA5"
      />
    </mask>
    <g mask="url(#mask3)">
      <path
        d="M3.51562 18.6279H7.27334V22.3849H3.51562V18.6279Z"
        fill="url(#paint2_linear)"
      />
      <path
        d="M8.23686 18.6279H11.9946V22.3849H8.23686V18.6279Z"
        fill="url(#paint3_linear)"
      />
      <path
        d="M3.51562 23.3483H7.27334V27.1053H3.51562V23.3483Z"
        fill="url(#paint4_linear)"
      />
      <path
        d="M8.23686 23.3483H11.9946V27.1053H8.23686V23.3483Z"
        fill="url(#paint5_linear)"
      />
      <path
        d="M12.9581 18.6279H16.7158V22.3849H12.9581V18.6279Z"
        fill="url(#paint6_linear)"
      />
      <path
        d="M17.6793 18.6279H21.4371V22.3849H17.6793V18.6279Z"
        fill="url(#paint7_linear)"
      />
      <path
        d="M12.9581 23.3483H16.7158V27.1053H12.9581V23.3483Z"
        fill="url(#paint8_linear)"
      />
      <path
        d="M17.6793 23.3483H21.4371V27.1053H17.6793V23.3483Z"
        fill="url(#paint9_linear)"
      />
      <path
        d="M3.51562 28.0686H7.27334V31.8256H3.51562V28.0686Z"
        fill="url(#paint10_linear)"
      />
      <path
        d="M8.23686 28.0686H11.9946V31.8256H8.23686V28.0686Z"
        fill="url(#paint11_linear)"
      />
      <path
        d="M3.51562 32.789H7.27334V36.546H3.51562V32.789Z"
        fill="url(#paint12_linear)"
      />
      <path
        d="M8.23686 32.789H11.9946V36.546H8.23686V32.789Z"
        fill="url(#paint13_linear)"
      />
      <path
        d="M12.9581 28.0686H16.7158V31.8256H12.9581V28.0686Z"
        fill="url(#paint14_linear)"
      />
      <path
        d="M17.6793 28.0686H21.4371V31.8256H17.6793V28.0686Z"
        fill="url(#paint15_linear)"
      />
      <path
        d="M12.9581 32.789H16.7158V36.546H12.9581V32.789Z"
        fill="url(#paint16_linear)"
      />
      <path
        d="M17.6793 32.789H21.4371V36.546H17.6793V32.789Z"
        fill="url(#paint17_linear)"
      />
      <path
        d="M22.4006 18.6279H26.1583V22.3849H22.4006V18.6279Z"
        fill="url(#paint18_linear)"
      />
      <path
        d="M27.1218 18.6279H30.8795V22.3849H27.1218V18.6279Z"
        fill="url(#paint19_linear)"
      />
      <path
        d="M22.4006 23.3483H26.1583V27.1053H22.4006V23.3483Z"
        fill="url(#paint20_linear)"
      />
      <path
        d="M27.1218 23.3483H30.8795V27.1053H27.1218V23.3483Z"
        fill="url(#paint21_linear)"
      />
      <path
        d="M31.843 18.6279H35.6008V22.3849H31.843V18.6279Z"
        fill="url(#paint22_linear)"
      />
      <path
        d="M36.5643 18.6279H40.322V22.3849H36.5643V18.6279Z"
        fill="url(#paint23_linear)"
      />
      <path
        d="M31.843 23.3483H35.6008V27.1053H31.843V23.3483Z"
        fill="url(#paint24_linear)"
      />
      <path
        d="M36.5643 23.3483H40.322V27.1053H36.5643V23.3483Z"
        fill="url(#paint25_linear)"
      />
      <path
        d="M22.4006 28.0686H26.1583V31.8256H22.4006V28.0686Z"
        fill="url(#paint26_linear)"
      />
      <path
        d="M27.1218 28.0686H30.8795V31.8256H27.1218V28.0686Z"
        fill="url(#paint27_linear)"
      />
      <path
        d="M22.4006 32.789H26.1583V36.546H22.4006V32.789Z"
        fill="url(#paint28_linear)"
      />
      <path
        d="M27.1218 32.789H30.8795V36.546H27.1218V32.789Z"
        fill="url(#paint29_linear)"
      />
      <path
        d="M31.843 28.0686H35.6008V31.8256H31.843V28.0686Z"
        fill="url(#paint30_linear)"
      />
      <path
        d="M36.5643 28.0686H40.322V31.8256H36.5643V28.0686Z"
        fill="url(#paint31_linear)"
      />
      <path
        d="M31.843 32.789H35.6008V36.546H31.843V32.789Z"
        fill="url(#paint32_linear)"
      />
      <path
        d="M36.5643 32.789H40.322V36.546H36.5643V32.789Z"
        fill="url(#paint33_linear)"
      />
      <path
        d="M3.51562 37.5093H7.27334V41.2663H3.51562V37.5093Z"
        fill="url(#paint34_linear)"
      />
      <path
        d="M8.23686 37.5093H11.9946V41.2663H8.23686V37.5093Z"
        fill="url(#paint35_linear)"
      />
      <path
        d="M3.51562 42.2296H7.27334V45.9866H3.51562V42.2296Z"
        fill="url(#paint36_linear)"
      />
      <path
        d="M8.23686 42.2296H11.9946V45.9866H8.23686V42.2296Z"
        fill="url(#paint37_linear)"
      />
      <path
        d="M12.9581 37.5093H16.7158V41.2663H12.9581V37.5093Z"
        fill="url(#paint38_linear)"
      />
      <path
        d="M17.6793 37.5093H21.4371V41.2663H17.6793V37.5093Z"
        fill="url(#paint39_linear)"
      />
      <path
        d="M12.9581 42.2296H16.7158V45.9866H12.9581V42.2296Z"
        fill="url(#paint40_linear)"
      />
      <path
        d="M17.6793 42.2296H21.4371V45.9866H17.6793V42.2296Z"
        fill="url(#paint41_linear)"
      />
      <path
        d="M3.51562 46.95H7.27334V50.707H3.51562V46.95Z"
        fill="url(#paint42_linear)"
      />
      <path
        d="M8.23686 46.95H11.9946V50.707H8.23686V46.95Z"
        fill="url(#paint43_linear)"
      />
      <path
        d="M3.51562 51.6703H7.27334V55.4273H3.51562V51.6703Z"
        fill="url(#paint44_linear)"
      />
      <path
        d="M8.23686 51.6703H11.9946V55.4273H8.23686V51.6703Z"
        fill="url(#paint45_linear)"
      />
      <path
        d="M12.9581 46.95H16.7158V50.707H12.9581V46.95Z"
        fill="url(#paint46_linear)"
      />
      <path
        d="M17.6793 46.95H21.4371V50.707H17.6793V46.95Z"
        fill="url(#paint47_linear)"
      />
      <path
        d="M12.9581 51.6703H16.7158V55.4273H12.9581V51.6703Z"
        fill="url(#paint48_linear)"
      />
      <path
        d="M17.6793 51.6703H21.4371V55.4273H17.6793V51.6703Z"
        fill="url(#paint49_linear)"
      />
      <path
        d="M22.4006 37.5093H26.1583V41.2663H22.4006V37.5093Z"
        fill="url(#paint50_linear)"
      />
      <path
        d="M27.1218 37.5093H30.8795V41.2663H27.1218V37.5093Z"
        fill="url(#paint51_linear)"
      />
      <path
        d="M22.4006 42.2296H26.1583V45.9866H22.4006V42.2296Z"
        fill="url(#paint52_linear)"
      />
      <path
        d="M27.1218 42.2296H30.8795V45.9866H27.1218V42.2296Z"
        fill="url(#paint53_linear)"
      />
      <path
        d="M31.843 37.5093H35.6008V41.2663H31.843V37.5093Z"
        fill="url(#paint54_linear)"
      />
      <path
        d="M36.5643 37.5093H40.322V41.2663H36.5643V37.5093Z"
        fill="url(#paint55_linear)"
      />
      <path
        d="M31.843 42.2296H35.6008V45.9866H31.843V42.2296Z"
        fill="url(#paint56_linear)"
      />
      <path
        d="M36.5643 42.2296H40.322V45.9866H36.5643V42.2296Z"
        fill="url(#paint57_linear)"
      />
      <path
        d="M22.4006 46.95H26.1583V50.707H22.4006V46.95Z"
        fill="url(#paint58_linear)"
      />
      <path
        d="M27.1218 46.95H30.8795V50.707H27.1218V46.95Z"
        fill="url(#paint59_linear)"
      />
      <path
        d="M22.4006 51.6703H26.1583V55.4273H22.4006V51.6703Z"
        fill="url(#paint60_linear)"
      />
      <path
        d="M27.1218 51.6703H30.8795V55.4273H27.1218V51.6703Z"
        fill="url(#paint61_linear)"
      />
      <path
        d="M31.843 46.95H35.6008V50.707H31.843V46.95Z"
        fill="url(#paint62_linear)"
      />
      <path
        d="M36.5643 46.95H40.322V50.707H36.5643V46.95Z"
        fill="url(#paint63_linear)"
      />
      <path
        d="M31.843 51.6703H35.6008V55.4273H31.843V51.6703Z"
        fill="url(#paint64_linear)"
      />
      <path
        d="M36.5643 51.6703H40.322V55.4273H36.5643V51.6703Z"
        fill="url(#paint65_linear)"
      />
    </g>
  </g>
  <defs>
    <linearGradient
      id="paint0_linear"
      x1="7.90323"
      y1="32.8462"
      x2="33.9839"
      y2="37.1042"
      gradientUnits="userSpaceOnUse"
    >
      <stop stop-color="#D6BAD3" />
      <stop offset="1" stop-color="#D68BB7" />
    </linearGradient>
    <linearGradient
      id="paint1_linear"
      x1="20.0009"
      y1="22.9106"
      x2="19.9502"
      y2="36.7731"
      gradientUnits="userSpaceOnUse"
    >
      <stop stop-color="#EBA39B" />
      <stop offset="1" stop-color="#FFC7B9" />
    </linearGradient>
    <linearGradient
      id="paint2_linear"
      x1="21.9188"
      y1="18.6279"
      x2="21.9188"
      y2="55.4273"
      gradientUnits="userSpaceOnUse"
    >
      <stop stop-color="#99C1E6" />
      <stop offset="1" stop-color="#94BBDE" />
    </linearGradient>
    <linearGradient
      id="paint3_linear"
      x1="21.9188"
      y1="18.6279"
      x2="21.9188"
      y2="55.4273"
      gradientUnits="userSpaceOnUse"
    >
      <stop stop-color="#99C1E6" />
      <stop offset="1" stop-color="#94BBDE" />
    </linearGradient>
    <linearGradient
      id="paint4_linear"
      x1="21.9188"
      y1="18.6279"
      x2="21.9188"
      y2="55.4273"
      gradientUnits="userSpaceOnUse"
    >
      <stop stop-color="#99C1E6" />
      <stop offset="1" stop-color="#94BBDE" />
    </linearGradient>
    <linearGradient
      id="paint5_linear"
      x1="21.9188"
      y1="18.6279"
      x2="21.9188"
      y2="55.4273"
      gradientUnits="userSpaceOnUse"
    >
      <stop stop-color="#99C1E6" />
      <stop offset="1" stop-color="#94BBDE" />
    </linearGradient>
    <linearGradient
      id="paint6_linear"
      x1="21.9188"
      y1="18.6279"
      x2="21.9188"
      y2="55.4273"
      gradientUnits="userSpaceOnUse"
    >
      <stop stop-color="#99C1E6" />
      <stop offset="1" stop-color="#94BBDE" />
    </linearGradient>
    <linearGradient
      id="paint7_linear"
      x1="21.9188"
      y1="18.6279"
      x2="21.9188"
      y2="55.4273"
      gradientUnits="userSpaceOnUse"
    >
      <stop stop-color="#99C1E6" />
      <stop offset="1" stop-color="#94BBDE" />
    </linearGradient>
    <linearGradient
      id="paint8_linear"
      x1="21.9188"
      y1="18.6279"
      x2="21.9188"
      y2="55.4273"
      gradientUnits="userSpaceOnUse"
    >
      <stop stop-color="#99C1E6" />
      <stop offset="1" stop-color="#94BBDE" />
    </linearGradient>
    <linearGradient
      id="paint9_linear"
      x1="21.9188"
      y1="18.6279"
      x2="21.9188"
      y2="55.4273"
      gradientUnits="userSpaceOnUse"
    >
      <stop stop-color="#99C1E6" />
      <stop offset="1" stop-color="#94BBDE" />
    </linearGradient>
    <linearGradient
      id="paint10_linear"
      x1="21.9188"
      y1="18.6279"
      x2="21.9188"
      y2="55.4273"
      gradientUnits="userSpaceOnUse"
    >
      <stop stop-color="#99C1E6" />
      <stop offset="1" stop-color="#94BBDE" />
    </linearGradient>
    <linearGradient
      id="paint11_linear"
      x1="21.9188"
      y1="18.6279"
      x2="21.9188"
      y2="55.4273"
      gradientUnits="userSpaceOnUse"
    >
      <stop stop-color="#99C1E6" />
      <stop offset="1" stop-color="#94BBDE" />
    </linearGradient>
    <linearGradient
      id="paint12_linear"
      x1="21.9188"
      y1="18.6279"
      x2="21.9188"
      y2="55.4273"
      gradientUnits="userSpaceOnUse"
    >
      <stop stop-color="#99C1E6" />
      <stop offset="1" stop-color="#94BBDE" />
    </linearGradient>
    <linearGradient
      id="paint13_linear"
      x1="21.9188"
      y1="18.6279"
      x2="21.9188"
      y2="55.4273"
      gradientUnits="userSpaceOnUse"
    >
      <stop stop-color="#99C1E6" />
      <stop offset="1" stop-color="#94BBDE" />
    </linearGradient>
    <linearGradient
      id="paint14_linear"
      x1="21.9188"
      y1="18.6279"
      x2="21.9188"
      y2="55.4273"
      gradientUnits="userSpaceOnUse"
    >
      <stop stop-color="#99C1E6" />
      <stop offset="1" stop-color="#94BBDE" />
    </linearGradient>
    <linearGradient
      id="paint15_linear"
      x1="21.9188"
      y1="18.6279"
      x2="21.9188"
      y2="55.4273"
      gradientUnits="userSpaceOnUse"
    >
      <stop stop-color="#99C1E6" />
      <stop offset="1" stop-color="#94BBDE" />
    </linearGradient>
    <linearGradient
      id="paint16_linear"
      x1="21.9188"
      y1="18.6279"
      x2="21.9188"
      y2="55.4273"
      gradientUnits="userSpaceOnUse"
    >
      <stop stop-color="#99C1E6" />
      <stop offset="1" stop-color="#94BBDE" />
    </linearGradient>
    <linearGradient
      id="paint17_linear"
      x1="21.9188"
      y1="18.6279"
      x2="21.9188"
      y2="55.4273"
      gradientUnits="userSpaceOnUse"
    >
      <stop stop-color="#99C1E6" />
      <stop offset="1" stop-color="#94BBDE" />
    </linearGradient>
    <linearGradient
      id="paint18_linear"
      x1="21.9188"
      y1="18.6279"
      x2="21.9188"
      y2="55.4273"
      gradientUnits="userSpaceOnUse"
    >
      <stop stop-color="#99C1E6" />
      <stop offset="1" stop-color="#94BBDE" />
    </linearGradient>
    <linearGradient
      id="paint19_linear"
      x1="21.9188"
      y1="18.6279"
      x2="21.9188"
      y2="55.4273"
      gradientUnits="userSpaceOnUse"
    >
      <stop stop-color="#99C1E6" />
      <stop offset="1" stop-color="#94BBDE" />
    </linearGradient>
    <linearGradient
      id="paint20_linear"
      x1="21.9188"
      y1="18.6279"
      x2="21.9188"
      y2="55.4273"
      gradientUnits="userSpaceOnUse"
    >
      <stop stop-color="#99C1E6" />
      <stop offset="1" stop-color="#94BBDE" />
    </linearGradient>
    <linearGradient
      id="paint21_linear"
      x1="21.9188"
      y1="18.6279"
      x2="21.9188"
      y2="55.4273"
      gradientUnits="userSpaceOnUse"
    >
      <stop stop-color="#99C1E6" />
      <stop offset="1" stop-color="#94BBDE" />
    </linearGradient>
    <linearGradient
      id="paint22_linear"
      x1="21.9188"
      y1="18.6279"
      x2="21.9188"
      y2="55.4273"
      gradientUnits="userSpaceOnUse"
    >
      <stop stop-color="#99C1E6" />
      <stop offset="1" stop-color="#94BBDE" />
    </linearGradient>
    <linearGradient
      id="paint23_linear"
      x1="21.9188"
      y1="18.6279"
      x2="21.9188"
      y2="55.4273"
      gradientUnits="userSpaceOnUse"
    >
      <stop stop-color="#99C1E6" />
      <stop offset="1" stop-color="#94BBDE" />
    </linearGradient>
    <linearGradient
      id="paint24_linear"
      x1="21.9188"
      y1="18.6279"
      x2="21.9188"
      y2="55.4273"
      gradientUnits="userSpaceOnUse"
    >
      <stop stop-color="#99C1E6" />
      <stop offset="1" stop-color="#94BBDE" />
    </linearGradient>
    <linearGradient
      id="paint25_linear"
      x1="21.9188"
      y1="18.6279"
      x2="21.9188"
      y2="55.4273"
      gradientUnits="userSpaceOnUse"
    >
      <stop stop-color="#99C1E6" />
      <stop offset="1" stop-color="#94BBDE" />
    </linearGradient>
    <linearGradient
      id="paint26_linear"
      x1="21.9188"
      y1="18.6279"
      x2="21.9188"
      y2="55.4273"
      gradientUnits="userSpaceOnUse"
    >
      <stop stop-color="#99C1E6" />
      <stop offset="1" stop-color="#94BBDE" />
    </linearGradient>
    <linearGradient
      id="paint27_linear"
      x1="21.9188"
      y1="18.6279"
      x2="21.9188"
      y2="55.4273"
      gradientUnits="userSpaceOnUse"
    >
      <stop stop-color="#99C1E6" />
      <stop offset="1" stop-color="#94BBDE" />
    </linearGradient>
    <linearGradient
      id="paint28_linear"
      x1="21.9188"
      y1="18.6279"
      x2="21.9188"
      y2="55.4273"
      gradientUnits="userSpaceOnUse"
    >
      <stop stop-color="#99C1E6" />
      <stop offset="1" stop-color="#94BBDE" />
    </linearGradient>
    <linearGradient
      id="paint29_linear"
      x1="21.9188"
      y1="18.6279"
      x2="21.9188"
      y2="55.4273"
      gradientUnits="userSpaceOnUse"
    >
      <stop stop-color="#99C1E6" />
      <stop offset="1" stop-color="#94BBDE" />
    </linearGradient>
    <linearGradient
      id="paint30_linear"
      x1="21.9188"
      y1="18.6279"
      x2="21.9188"
      y2="55.4273"
      gradientUnits="userSpaceOnUse"
    >
      <stop stop-color="#99C1E6" />
      <stop offset="1" stop-color="#94BBDE" />
    </linearGradient>
    <linearGradient
      id="paint31_linear"
      x1="21.9188"
      y1="18.6279"
      x2="21.9188"
      y2="55.4273"
      gradientUnits="userSpaceOnUse"
    >
      <stop stop-color="#99C1E6" />
      <stop offset="1" stop-color="#94BBDE" />
    </linearGradient>
    <linearGradient
      id="paint32_linear"
      x1="21.9188"
      y1="18.6279"
      x2="21.9188"
      y2="55.4273"
      gradientUnits="userSpaceOnUse"
    >
      <stop stop-color="#99C1E6" />
      <stop offset="1" stop-color="#94BBDE" />
    </linearGradient>
    <linearGradient
      id="paint33_linear"
      x1="21.9188"
      y1="18.6279"
      x2="21.9188"
      y2="55.4273"
      gradientUnits="userSpaceOnUse"
    >
      <stop stop-color="#99C1E6" />
      <stop offset="1" stop-color="#94BBDE" />
    </linearGradient>
    <linearGradient
      id="paint34_linear"
      x1="21.9188"
      y1="18.6279"
      x2="21.9188"
      y2="55.4273"
      gradientUnits="userSpaceOnUse"
    >
      <stop stop-color="#99C1E6" />
      <stop offset="1" stop-color="#94BBDE" />
    </linearGradient>
    <linearGradient
      id="paint35_linear"
      x1="21.9188"
      y1="18.6279"
      x2="21.9188"
      y2="55.4273"
      gradientUnits="userSpaceOnUse"
    >
      <stop stop-color="#99C1E6" />
      <stop offset="1" stop-color="#94BBDE" />
    </linearGradient>
    <linearGradient
      id="paint36_linear"
      x1="21.9188"
      y1="18.6279"
      x2="21.9188"
      y2="55.4273"
      gradientUnits="userSpaceOnUse"
    >
      <stop stop-color="#99C1E6" />
      <stop offset="1" stop-color="#94BBDE" />
    </linearGradient>
    <linearGradient
      id="paint37_linear"
      x1="21.9188"
      y1="18.6279"
      x2="21.9188"
      y2="55.4273"
      gradientUnits="userSpaceOnUse"
    >
      <stop stop-color="#99C1E6" />
      <stop offset="1" stop-color="#94BBDE" />
    </linearGradient>
    <linearGradient
      id="paint38_linear"
      x1="21.9188"
      y1="18.6279"
      x2="21.9188"
      y2="55.4273"
      gradientUnits="userSpaceOnUse"
    >
      <stop stop-color="#99C1E6" />
      <stop offset="1" stop-color="#94BBDE" />
    </linearGradient>
    <linearGradient
      id="paint39_linear"
      x1="21.9188"
      y1="18.6279"
      x2="21.9188"
      y2="55.4273"
      gradientUnits="userSpaceOnUse"
    >
      <stop stop-color="#99C1E6" />
      <stop offset="1" stop-color="#94BBDE" />
    </linearGradient>
    <linearGradient
      id="paint40_linear"
      x1="21.9188"
      y1="18.6279"
      x2="21.9188"
      y2="55.4273"
      gradientUnits="userSpaceOnUse"
    >
      <stop stop-color="#99C1E6" />
      <stop offset="1" stop-color="#94BBDE" />
    </linearGradient>
    <linearGradient
      id="paint41_linear"
      x1="21.9188"
      y1="18.6279"
      x2="21.9188"
      y2="55.4273"
      gradientUnits="userSpaceOnUse"
    >
      <stop stop-color="#99C1E6" />
      <stop offset="1" stop-color="#94BBDE" />
    </linearGradient>
    <linearGradient
      id="paint42_linear"
      x1="21.9188"
      y1="18.6279"
      x2="21.9188"
      y2="55.4273"
      gradientUnits="userSpaceOnUse"
    >
      <stop stop-color="#99C1E6" />
      <stop offset="1" stop-color="#94BBDE" />
    </linearGradient>
    <linearGradient
      id="paint43_linear"
      x1="21.9188"
      y1="18.6279"
      x2="21.9188"
      y2="55.4273"
      gradientUnits="userSpaceOnUse"
    >
      <stop stop-color="#99C1E6" />
      <stop offset="1" stop-color="#94BBDE" />
    </linearGradient>
    <linearGradient
      id="paint44_linear"
      x1="21.9188"
      y1="18.6279"
      x2="21.9188"
      y2="55.4273"
      gradientUnits="userSpaceOnUse"
    >
      <stop stop-color="#99C1E6" />
      <stop offset="1" stop-color="#94BBDE" />
    </linearGradient>
    <linearGradient
      id="paint45_linear"
      x1="21.9188"
      y1="18.6279"
      x2="21.9188"
      y2="55.4273"
      gradientUnits="userSpaceOnUse"
    >
      <stop stop-color="#99C1E6" />
      <stop offset="1" stop-color="#94BBDE" />
    </linearGradient>
    <linearGradient
      id="paint46_linear"
      x1="21.9188"
      y1="18.6279"
      x2="21.9188"
      y2="55.4273"
      gradientUnits="userSpaceOnUse"
    >
      <stop stop-color="#99C1E6" />
      <stop offset="1" stop-color="#94BBDE" />
    </linearGradient>
    <linearGradient
      id="paint47_linear"
      x1="21.9188"
      y1="18.6279"
      x2="21.9188"
      y2="55.4273"
      gradientUnits="userSpaceOnUse"
    >
      <stop stop-color="#99C1E6" />
      <stop offset="1" stop-color="#94BBDE" />
    </linearGradient>
    <linearGradient
      id="paint48_linear"
      x1="21.9188"
      y1="18.6279"
      x2="21.9188"
      y2="55.4273"
      gradientUnits="userSpaceOnUse"
    >
      <stop stop-color="#99C1E6" />
      <stop offset="1" stop-color="#94BBDE" />
    </linearGradient>
    <linearGradient
      id="paint49_linear"
      x1="21.9188"
      y1="18.6279"
      x2="21.9188"
      y2="55.4273"
      gradientUnits="userSpaceOnUse"
    >
      <stop stop-color="#99C1E6" />
      <stop offset="1" stop-color="#94BBDE" />
    </linearGradient>
    <linearGradient
      id="paint50_linear"
      x1="21.9188"
      y1="18.6279"
      x2="21.9188"
      y2="55.4273"
      gradientUnits="userSpaceOnUse"
    >
      <stop stop-color="#99C1E6" />
      <stop offset="1" stop-color="#94BBDE" />
    </linearGradient>
    <linearGradient
      id="paint51_linear"
      x1="21.9188"
      y1="18.6279"
      x2="21.9188"
      y2="55.4273"
      gradientUnits="userSpaceOnUse"
    >
      <stop stop-color="#99C1E6" />
      <stop offset="1" stop-color="#94BBDE" />
    </linearGradient>
    <linearGradient
      id="paint52_linear"
      x1="21.9188"
      y1="18.6279"
      x2="21.9188"
      y2="55.4273"
      gradientUnits="userSpaceOnUse"
    >
      <stop stop-color="#99C1E6" />
      <stop offset="1" stop-color="#94BBDE" />
    </linearGradient>
    <linearGradient
      id="paint53_linear"
      x1="21.9188"
      y1="18.6279"
      x2="21.9188"
      y2="55.4273"
      gradientUnits="userSpaceOnUse"
    >
      <stop stop-color="#99C1E6" />
      <stop offset="1" stop-color="#94BBDE" />
    </linearGradient>
    <linearGradient
      id="paint54_linear"
      x1="21.9188"
      y1="18.6279"
      x2="21.9188"
      y2="55.4273"
      gradientUnits="userSpaceOnUse"
    >
      <stop stop-color="#99C1E6" />
      <stop offset="1" stop-color="#94BBDE" />
    </linearGradient>
    <linearGradient
      id="paint55_linear"
      x1="21.9188"
      y1="18.6279"
      x2="21.9188"
      y2="55.4273"
      gradientUnits="userSpaceOnUse"
    >
      <stop stop-color="#99C1E6" />
      <stop offset="1" stop-color="#94BBDE" />
    </linearGradient>
    <linearGradient
      id="paint56_linear"
      x1="21.9188"
      y1="18.6279"
      x2="21.9188"
      y2="55.4273"
      gradientUnits="userSpaceOnUse"
    >
      <stop stop-color="#99C1E6" />
      <stop offset="1" stop-color="#94BBDE" />
    </linearGradient>
    <linearGradient
      id="paint57_linear"
      x1="21.9188"
      y1="18.6279"
      x2="21.9188"
      y2="55.4273"
      gradientUnits="userSpaceOnUse"
    >
      <stop stop-color="#99C1E6" />
      <stop offset="1" stop-color="#94BBDE" />
    </linearGradient>
    <linearGradient
      id="paint58_linear"
      x1="21.9188"
      y1="18.6279"
      x2="21.9188"
      y2="55.4273"
      gradientUnits="userSpaceOnUse"
    >
      <stop stop-color="#99C1E6" />
      <stop offset="1" stop-color="#94BBDE" />
    </linearGradient>
    <linearGradient
      id="paint59_linear"
      x1="21.9188"
      y1="18.6279"
      x2="21.9188"
      y2="55.4273"
      gradientUnits="userSpaceOnUse"
    >
      <stop stop-color="#99C1E6" />
      <stop offset="1" stop-color="#94BBDE" />
    </linearGradient>
    <linearGradient
      id="paint60_linear"
      x1="21.9188"
      y1="18.6279"
      x2="21.9188"
      y2="55.4273"
      gradientUnits="userSpaceOnUse"
    >
      <stop stop-color="#99C1E6" />
      <stop offset="1" stop-color="#94BBDE" />
    </linearGradient>
    <linearGradient
      id="paint61_linear"
      x1="21.9188"
      y1="18.6279"
      x2="21.9188"
      y2="55.4273"
      gradientUnits="userSpaceOnUse"
    >
      <stop stop-color="#99C1E6" />
      <stop offset="1" stop-color="#94BBDE" />
    </linearGradient>
    <linearGradient
      id="paint62_linear"
      x1="21.9188"
      y1="18.6279"
      x2="21.9188"
      y2="55.4273"
      gradientUnits="userSpaceOnUse"
    >
      <stop stop-color="#99C1E6" />
      <stop offset="1" stop-color="#94BBDE" />
    </linearGradient>
    <linearGradient
      id="paint63_linear"
      x1="21.9188"
      y1="18.6279"
      x2="21.9188"
      y2="55.4273"
      gradientUnits="userSpaceOnUse"
    >
      <stop stop-color="#99C1E6" />
      <stop offset="1" stop-color="#94BBDE" />
    </linearGradient>
    <linearGradient
      id="paint64_linear"
      x1="21.9188"
      y1="18.6279"
      x2="21.9188"
      y2="55.4273"
      gradientUnits="userSpaceOnUse"
    >
      <stop stop-color="#99C1E6" />
      <stop offset="1" stop-color="#94BBDE" />
    </linearGradient>
    <linearGradient
      id="paint65_linear"
      x1="21.9188"
      y1="18.6279"
      x2="21.9188"
      y2="55.4273"
      gradientUnits="userSpaceOnUse"
    >
      <stop stop-color="#99C1E6" />
      <stop offset="1" stop-color="#94BBDE" />
    </linearGradient>
  </defs>
</svg>
