;<svg
  width="24"
  height="24"
  viewBox="0 0 24 24"
  fill="none"
  xmlns="http://www.w3.org/2000/svg"
>
  <circle cx="12" cy="12" r="12" fill="#F0F0F0" />
  <path
    d="M14.4733 12.4733C15.1269 11.959 15.604 11.2539 15.8382 10.4559C16.0723 9.6579 16.0519 8.80676 15.7799 8.0209C15.5078 7.23503 14.9975 6.55352 14.32 6.07116C13.6426 5.5888 12.8316 5.32959 12 5.32959C11.1684 5.32959 10.3574 5.5888 9.67995 6.07116C9.00249 6.55352 8.49223 7.23503 8.22014 8.0209C7.94805 8.80676 7.92767 9.6579 8.16184 10.4559C8.396 11.2539 8.87307 11.959 9.52666 12.4733C8.40672 12.9219 7.42952 13.6662 6.69926 14.6265C5.969 15.5869 5.51304 16.7275 5.38 17.9266C5.37037 18.0141 5.37808 18.1027 5.40268 18.1873C5.42729 18.2719 5.46831 18.3508 5.52341 18.4195C5.63468 18.5582 5.79652 18.6471 5.97333 18.6666C6.15014 18.686 6.32744 18.6345 6.46621 18.5232C6.60499 18.4119 6.69388 18.2501 6.71333 18.0733C6.85972 16.77 7.48112 15.5665 8.45881 14.6924C9.4365 13.8184 10.7019 13.3353 12.0133 13.3353C13.3247 13.3353 14.5902 13.8184 15.5679 14.6924C16.5455 15.5665 17.1669 16.77 17.3133 18.0733C17.3315 18.2371 17.4096 18.3884 17.5327 18.4979C17.6559 18.6075 17.8152 18.6676 17.98 18.6666H18.0533C18.2281 18.6465 18.3878 18.5581 18.4977 18.4208C18.6076 18.2834 18.6587 18.1082 18.64 17.9333C18.5063 16.7307 18.0479 15.5872 17.3139 14.6254C16.5799 13.6635 15.5979 12.9196 14.4733 12.4733V12.4733ZM12 11.9999C11.4726 11.9999 10.957 11.8435 10.5185 11.5505C10.0799 11.2575 9.73815 10.841 9.53632 10.3537C9.33449 9.86647 9.28168 9.3303 9.38457 8.81301C9.48746 8.29573 9.74144 7.82058 10.1144 7.44764C10.4873 7.0747 10.9625 6.82072 11.4798 6.71783C11.997 6.61493 12.5332 6.66774 13.0205 6.86957C13.5078 7.07141 13.9242 7.4132 14.2173 7.85173C14.5103 8.29026 14.6667 8.80584 14.6667 9.33325C14.6667 10.0405 14.3857 10.7188 13.8856 11.2189C13.3855 11.719 12.7072 11.9999 12 11.9999Z"
    fill="#723FA5"
  />
</svg>
